<?xml version="1.0" encoding="UTF-8" standalone="no"?>
<!-- Generator: Gravit.io -->
<svg xmlns="http://www.w3.org/2000/svg" xmlns:xlink="http://www.w3.org/1999/xlink" style="isolation:isolate" viewBox="666.563 297 1093.326 584.231" width="1093.326pt" height="584.231pt"><defs><clipPath id="_clipPath_fhMCYkZ1aJWgnSz5tx0m6e0GcfaUTxHZ"><rect x="666.563" y="297" width="1093.326" height="584.231"/></clipPath></defs><g clip-path="url(#_clipPath_fhMCYkZ1aJWgnSz5tx0m6e0GcfaUTxHZ)"><g><g opacity="0.04"><ellipse vector-effect="non-scaling-stroke" cx="1216.6429636599282" cy="846.3094" rx="527.5" ry="34.92160000000001" fill="rgb(255,255,255)"/></g><path d=" M 1196.425 464.01 C 1110.481 464.01 1048.774 519.149 1048.774 647.808 C 1048.774 793.621 1110.481 832.218 1196.425 832.218 C 1282.369 832.218 1347.752 789.945 1347.752 647.808 C 1347.752 495.868 1282.369 464.01 1196.425 464.01 Z  M 1196.99 783.818 C 1137.463 783.818 1106.364 748.895 1106.364 647.902 C 1106.364 558.79 1138.736 511.797 1198.263 511.797 C 1257.79 511.797 1290.162 542.665 1290.162 647.902 C 1290.162 746.349 1256.517 783.818 1196.99 783.818 Z " fill="rgb(47,46,65)"/><path d=" M 997.311 730.517 L 961.777 730.517 L 961.777 625.877 C 961.776 614.304 952.394 604.922 940.821 604.921 L 932.494 604.921 C 926.936 604.921 921.606 607.129 917.676 611.059 C 913.746 614.989 911.538 620.32 911.538 625.877 L 911.538 730.517 L 811.308 730.517 C 807.114 730.517 803.227 728.321 801.062 724.728 C 798.897 721.136 798.771 716.673 800.731 712.965 L 906.813 512.184 C 909.486 507.126 909.974 501.195 908.165 495.767 C 906.355 490.34 902.406 485.888 897.233 483.446 L 890.97 480.488 C 880.871 475.719 868.806 479.709 863.541 489.558 L 734.16 731.591 C 731.956 735.712 730.804 740.314 730.804 744.987 L 730.804 744.987 C 730.804 752.523 733.798 759.751 739.127 765.08 C 744.456 770.409 751.683 773.403 759.22 773.403 L 911.538 773.403 L 911.538 839.57 C 911.538 846.232 914.185 852.621 918.896 857.332 C 923.606 862.043 929.995 864.689 936.657 864.689 L 936.657 864.689 C 943.319 864.689 949.709 862.043 954.419 857.332 C 959.13 852.621 961.776 846.232 961.776 839.57 L 961.776 773.403 L 997.311 773.403 C 1002.998 773.403 1008.452 771.144 1012.473 767.122 C 1016.495 763.101 1018.754 757.647 1018.754 751.96 L 1018.754 751.96 C 1018.754 740.117 1009.153 730.517 997.311 730.517 L 997.311 730.517 Z " fill="rgb(235,52,52)"/><path d=" M 1655.307 730.517 L 1619.773 730.517 L 1619.773 625.877 C 1619.773 614.304 1610.391 604.921 1598.817 604.921 L 1590.491 604.921 C 1584.933 604.921 1579.603 607.129 1575.673 611.059 C 1571.743 614.989 1569.535 620.32 1569.535 625.877 L 1569.535 730.517 L 1469.305 730.517 C 1465.111 730.517 1461.223 728.321 1459.058 724.728 C 1456.894 721.136 1456.768 716.673 1458.727 712.965 L 1564.81 512.184 C 1567.482 507.126 1567.971 501.195 1566.161 495.768 C 1564.352 490.34 1560.402 485.888 1555.229 483.446 L 1548.967 480.488 C 1538.868 475.719 1526.803 479.709 1521.538 489.558 L 1392.156 731.591 C 1389.953 735.712 1388.8 740.314 1388.8 744.987 L 1388.8 744.987 C 1388.8 752.523 1391.794 759.751 1397.123 765.08 C 1402.452 770.409 1409.68 773.403 1417.216 773.403 L 1569.535 773.403 L 1569.535 839.57 C 1569.535 846.232 1572.181 852.621 1576.892 857.332 C 1581.603 862.043 1587.992 864.689 1594.654 864.689 L 1594.654 864.689 C 1601.316 864.689 1607.705 862.043 1612.416 857.332 C 1617.126 852.621 1619.773 846.232 1619.773 839.57 L 1619.773 773.403 L 1655.307 773.403 C 1660.994 773.403 1666.448 771.144 1670.47 767.122 C 1674.491 763.101 1676.75 757.647 1676.75 751.96 L 1676.75 751.96 C 1676.75 740.117 1667.15 730.517 1655.307 730.517 L 1655.307 730.517 Z " fill="rgb(235,52,52)"/><mask id="_mask_WTl5plRUhpEBB74yARaGkui7Zjv8e21U" x="-200%" y="-200%" width="400%" height="400%"><rect x="-200%" y="-200%" width="400%" height="400%" style="fill:white;"/><path d=" M 1007.113 718.264 L 971.579 718.264 L 971.579 613.624 C 971.579 608.066 969.371 602.736 965.441 598.806 C 961.511 594.876 956.181 592.668 950.623 592.668 L 942.297 592.668 C 936.739 592.668 931.409 594.876 927.479 598.806 C 923.549 602.736 921.341 608.066 921.341 613.624 L 921.341 718.264 L 821.111 718.264 C 816.917 718.264 813.029 716.067 810.864 712.475 C 808.7 708.883 808.574 704.42 810.533 700.712 L 916.616 499.931 C 919.288 494.873 919.777 488.942 917.967 483.514 C 916.158 478.087 912.209 473.635 907.035 471.192 L 900.773 468.235 C 890.674 463.466 878.609 467.455 873.344 477.305 L 743.962 719.338 C 741.759 723.459 740.606 728.06 740.606 732.734 L 740.606 732.734 C 740.606 740.27 743.6 747.498 748.929 752.827 C 754.258 758.156 761.486 761.15 769.022 761.15 L 921.341 761.15 L 921.341 827.317 C 921.341 833.979 923.987 840.368 928.698 845.079 C 933.409 849.789 939.798 852.436 946.46 852.436 L 946.46 852.436 C 953.122 852.436 959.511 849.789 964.222 845.079 C 968.933 840.368 971.579 833.979 971.579 827.317 L 971.579 761.15 L 1007.113 761.15 C 1012.8 761.15 1018.255 758.891 1022.276 754.869 C 1026.297 750.848 1028.556 745.394 1028.556 739.707 L 1028.556 739.707 C 1028.556 734.02 1026.297 728.565 1022.276 724.544 C 1018.255 720.523 1012.8 718.264 1007.113 718.263 L 1007.113 718.264 Z " fill="black" stroke="none"/></mask><path d=" M 1007.113 718.264 L 971.579 718.264 L 971.579 613.624 C 971.579 608.066 969.371 602.736 965.441 598.806 C 961.511 594.876 956.181 592.668 950.623 592.668 L 942.297 592.668 C 936.739 592.668 931.409 594.876 927.479 598.806 C 923.549 602.736 921.341 608.066 921.341 613.624 L 921.341 718.264 L 821.111 718.264 C 816.917 718.264 813.029 716.067 810.864 712.475 C 808.7 708.883 808.574 704.42 810.533 700.712 L 916.616 499.931 C 919.288 494.873 919.777 488.942 917.967 483.514 C 916.158 478.087 912.209 473.635 907.035 471.192 L 900.773 468.235 C 890.674 463.466 878.609 467.455 873.344 477.305 L 743.962 719.338 C 741.759 723.459 740.606 728.06 740.606 732.734 L 740.606 732.734 C 740.606 740.27 743.6 747.498 748.929 752.827 C 754.258 758.156 761.486 761.15 769.022 761.15 L 921.341 761.15 L 921.341 827.317 C 921.341 833.979 923.987 840.368 928.698 845.079 C 933.409 849.789 939.798 852.436 946.46 852.436 L 946.46 852.436 C 953.122 852.436 959.511 849.789 964.222 845.079 C 968.933 840.368 971.579 833.979 971.579 827.317 L 971.579 761.15 L 1007.113 761.15 C 1012.8 761.15 1018.255 758.891 1022.276 754.869 C 1026.297 750.848 1028.556 745.394 1028.556 739.707 L 1028.556 739.707 C 1028.556 734.02 1026.297 728.565 1022.276 724.544 C 1018.255 720.523 1012.8 718.264 1007.113 718.263 L 1007.113 718.264 Z " fill="none"/><path d=" M 1007.113 718.264 L 971.579 718.264 L 971.579 613.624 C 971.579 608.066 969.371 602.736 965.441 598.806 C 961.511 594.876 956.181 592.668 950.623 592.668 L 942.297 592.668 C 936.739 592.668 931.409 594.876 927.479 598.806 C 923.549 602.736 921.341 608.066 921.341 613.624 L 921.341 718.264 L 821.111 718.264 C 816.917 718.264 813.029 716.067 810.864 712.475 C 808.7 708.883 808.574 704.42 810.533 700.712 L 916.616 499.931 C 919.288 494.873 919.777 488.942 917.967 483.514 C 916.158 478.087 912.209 473.635 907.035 471.192 L 900.773 468.235 C 890.674 463.466 878.609 467.455 873.344 477.305 L 743.962 719.338 C 741.759 723.459 740.606 728.06 740.606 732.734 L 740.606 732.734 C 740.606 740.27 743.6 747.498 748.929 752.827 C 754.258 758.156 761.486 761.15 769.022 761.15 L 921.341 761.15 L 921.341 827.317 C 921.341 833.979 923.987 840.368 928.698 845.079 C 933.409 849.789 939.798 852.436 946.46 852.436 L 946.46 852.436 C 953.122 852.436 959.511 849.789 964.222 845.079 C 968.933 840.368 971.579 833.979 971.579 827.317 L 971.579 761.15 L 1007.113 761.15 C 1012.8 761.15 1018.255 758.891 1022.276 754.869 C 1026.297 750.848 1028.556 745.394 1028.556 739.707 L 1028.556 739.707 C 1028.556 734.02 1026.297 728.565 1022.276 724.544 C 1018.255 720.523 1012.8 718.264 1007.113 718.263 L 1007.113 718.264 Z " fill="none" mask="url(#_mask_WTl5plRUhpEBB74yARaGkui7Zjv8e21U)" vector-effect="non-scaling-stroke" stroke-width="2" stroke="rgb(63,61,86)" stroke-linejoin="miter" stroke-linecap="butt" stroke-miterlimit="10"/><mask id="_mask_XfmtaO7vW0dInMc8ar5HsitpJm5HtB1z" x="-200%" y="-200%" width="400%" height="400%"><rect x="-200%" y="-200%" width="400%" height="400%" style="fill:white;"/><path d=" M 1673.687 718.264 L 1638.153 718.264 L 1638.153 613.624 C 1638.153 608.066 1635.945 602.736 1632.015 598.806 C 1628.085 594.876 1622.755 592.668 1617.197 592.668 L 1608.871 592.668 C 1603.313 592.668 1597.983 594.876 1594.053 598.806 C 1590.123 602.736 1587.915 608.066 1587.915 613.624 L 1587.915 718.264 L 1487.685 718.264 C 1483.491 718.264 1479.603 716.067 1477.438 712.475 C 1475.273 708.883 1475.148 704.42 1477.107 700.712 L 1583.189 499.931 C 1585.862 494.873 1586.35 488.942 1584.541 483.514 C 1582.732 478.087 1578.782 473.635 1573.609 471.192 L 1567.347 468.235 C 1557.248 463.466 1545.183 467.455 1539.917 477.305 L 1410.536 719.338 C 1408.333 723.459 1407.18 728.06 1407.18 732.734 L 1407.18 732.734 C 1407.18 740.27 1410.174 747.498 1415.503 752.827 C 1420.832 758.156 1428.06 761.15 1435.596 761.15 L 1587.915 761.15 L 1587.915 827.317 C 1587.915 833.979 1590.561 840.368 1595.272 845.079 C 1599.983 849.789 1606.372 852.436 1613.034 852.436 L 1613.034 852.436 C 1626.907 852.436 1638.153 841.19 1638.153 827.317 L 1638.153 761.15 L 1673.687 761.15 C 1679.374 761.15 1684.828 758.891 1688.85 754.869 C 1692.871 750.848 1695.13 745.394 1695.13 739.707 L 1695.13 739.707 C 1695.13 727.864 1685.53 718.264 1673.687 718.263 L 1673.687 718.264 Z " fill="black" stroke="none"/></mask><path d=" M 1673.687 718.264 L 1638.153 718.264 L 1638.153 613.624 C 1638.153 608.066 1635.945 602.736 1632.015 598.806 C 1628.085 594.876 1622.755 592.668 1617.197 592.668 L 1608.871 592.668 C 1603.313 592.668 1597.983 594.876 1594.053 598.806 C 1590.123 602.736 1587.915 608.066 1587.915 613.624 L 1587.915 718.264 L 1487.685 718.264 C 1483.491 718.264 1479.603 716.067 1477.438 712.475 C 1475.273 708.883 1475.148 704.42 1477.107 700.712 L 1583.189 499.931 C 1585.862 494.873 1586.35 488.942 1584.541 483.514 C 1582.732 478.087 1578.782 473.635 1573.609 471.192 L 1567.347 468.235 C 1557.248 463.466 1545.183 467.455 1539.917 477.305 L 1410.536 719.338 C 1408.333 723.459 1407.18 728.06 1407.18 732.734 L 1407.18 732.734 C 1407.18 740.27 1410.174 747.498 1415.503 752.827 C 1420.832 758.156 1428.06 761.15 1435.596 761.15 L 1587.915 761.15 L 1587.915 827.317 C 1587.915 833.979 1590.561 840.368 1595.272 845.079 C 1599.983 849.789 1606.372 852.436 1613.034 852.436 L 1613.034 852.436 C 1626.907 852.436 1638.153 841.19 1638.153 827.317 L 1638.153 761.15 L 1673.687 761.15 C 1679.374 761.15 1684.828 758.891 1688.85 754.869 C 1692.871 750.848 1695.13 745.394 1695.13 739.707 L 1695.13 739.707 C 1695.13 727.864 1685.53 718.264 1673.687 718.263 L 1673.687 718.264 Z " fill="none"/><path d=" M 1673.687 718.264 L 1638.153 718.264 L 1638.153 613.624 C 1638.153 608.066 1635.945 602.736 1632.015 598.806 C 1628.085 594.876 1622.755 592.668 1617.197 592.668 L 1608.871 592.668 C 1603.313 592.668 1597.983 594.876 1594.053 598.806 C 1590.123 602.736 1587.915 608.066 1587.915 613.624 L 1587.915 718.264 L 1487.685 718.264 C 1483.491 718.264 1479.603 716.067 1477.438 712.475 C 1475.273 708.883 1475.148 704.42 1477.107 700.712 L 1583.189 499.931 C 1585.862 494.873 1586.35 488.942 1584.541 483.514 C 1582.732 478.087 1578.782 473.635 1573.609 471.192 L 1567.347 468.235 C 1557.248 463.466 1545.183 467.455 1539.917 477.305 L 1410.536 719.338 C 1408.333 723.459 1407.18 728.06 1407.18 732.734 L 1407.18 732.734 C 1407.18 740.27 1410.174 747.498 1415.503 752.827 C 1420.832 758.156 1428.06 761.15 1435.596 761.15 L 1587.915 761.15 L 1587.915 827.317 C 1587.915 833.979 1590.561 840.368 1595.272 845.079 C 1599.983 849.789 1606.372 852.436 1613.034 852.436 L 1613.034 852.436 C 1626.907 852.436 1638.153 841.19 1638.153 827.317 L 1638.153 761.15 L 1673.687 761.15 C 1679.374 761.15 1684.828 758.891 1688.85 754.869 C 1692.871 750.848 1695.13 745.394 1695.13 739.707 L 1695.13 739.707 C 1695.13 727.864 1685.53 718.264 1673.687 718.263 L 1673.687 718.264 Z " fill="none" mask="url(#_mask_XfmtaO7vW0dInMc8ar5HsitpJm5HtB1z)" vector-effect="non-scaling-stroke" stroke-width="2" stroke="rgb(63,61,86)" stroke-linejoin="miter" stroke-linecap="butt" stroke-miterlimit="10"/><path d=" M 1216.03 452.982 C 1130.086 452.982 1068.379 508.121 1068.379 636.78 C 1068.379 782.593 1130.086 821.19 1216.03 821.19 C 1301.974 821.19 1367.357 778.917 1367.357 636.78 C 1367.357 484.84 1301.974 452.982 1216.03 452.982 Z  M 1216.595 772.79 C 1157.068 772.79 1125.969 737.867 1125.969 636.874 C 1125.969 547.762 1158.341 500.769 1217.868 500.769 C 1277.395 500.769 1309.767 531.637 1309.767 636.874 C 1309.767 735.321 1276.122 772.79 1216.595 772.79 L 1216.595 772.79 Z " fill="none" vector-effect="non-scaling-stroke" stroke-width="1" stroke="rgb(63,61,86)" stroke-linejoin="miter" stroke-linecap="butt" stroke-miterlimit="10"/><ellipse vector-effect="non-scaling-stroke" cx="1178.6068636599284" cy="343.88476" rx="36.18622000000005" ry="46.88476000000003" fill="rgb(47,46,65)"/><g opacity="0.1"><path d=" M 1178.607 376.61 C 1160.479 376.61 1145.466 359.339 1142.831 336.805 C 1142.557 339.155 1142.42 341.519 1142.421 343.885 C 1142.421 369.778 1158.622 390.77 1178.607 390.77 C 1198.592 390.77 1214.793 369.779 1214.793 343.885 C 1214.794 341.519 1214.657 339.155 1214.383 336.805 C 1211.748 359.339 1196.735 376.61 1178.607 376.61 Z " fill="rgb(0,0,0)"/></g><path d=" M 1252.242 481.189 C 1251.465 484.382 1248.114 486.94 1244.403 488.727 C 1236.601 492.483 1226.978 493.605 1217.643 493.981 C 1215.262 494.126 1212.873 494.081 1210.499 493.849 C 1205.898 493.404 1201.582 491.42 1198.248 488.217 C 1197.764 487.902 1197.476 487.361 1197.485 486.783 C 1197.494 486.206 1197.799 485.674 1198.292 485.374 C 1203.261 479.915 1211.554 476.568 1219.908 474.157 C 1226.242 472.33 1237.289 467.597 1244.198 468.235 C 1250.89 468.854 1253.223 477.157 1252.242 481.189 Z " fill="rgb(63,61,86)"/><g opacity="0.1"><path d=" M 1252.242 481.189 C 1251.465 484.382 1248.114 486.94 1244.403 488.727 C 1236.601 492.483 1226.978 493.605 1217.643 493.981 C 1215.262 494.126 1212.873 494.081 1210.499 493.849 C 1205.898 493.404 1201.582 491.42 1198.248 488.217 C 1197.764 487.902 1197.476 487.361 1197.485 486.783 C 1197.494 486.206 1197.799 485.674 1198.292 485.374 C 1203.261 479.915 1211.554 476.568 1219.908 474.157 C 1226.242 472.33 1237.289 467.597 1244.198 468.235 C 1250.89 468.854 1253.223 477.157 1252.242 481.189 Z " fill="rgb(0,0,0)"/></g><path d=" M 1153.043 457.321 C 1150.662 461.989 1150.231 467.411 1151.845 472.396 C 1153.486 477.344 1156.559 481.693 1160.674 484.893 C 1170.769 492.985 1184.662 494.098 1197.599 493.986 C 1208.937 493.887 1220.259 493.111 1231.504 491.662 C 1235.272 491.328 1238.975 490.468 1242.505 489.108 C 1246.728 487.281 1250.438 483.93 1251.941 479.582 C 1253.445 475.234 1252.378 469.909 1248.807 467.008 C 1245.671 464.458 1241.345 464.107 1237.31 463.865 L 1214.222 462.477 C 1216.503 460.169 1219.54 458.863 1222.318 457.185 C 1226.003 454.959 1228.452 451.22 1231.131 447.85 C 1235.26 442.916 1239.752 438.297 1244.57 434.033 C 1245.321 438.344 1248.048 441.883 1251.257 444.857 C 1254.466 447.831 1258.165 450.226 1261.501 453.057 C 1269.58 459.916 1275.397 469.224 1283.893 475.558 C 1289.738 474.022 1295.202 471.294 1299.942 467.546 L 1296.64 461.564 C 1296.364 460.949 1295.936 460.414 1295.395 460.011 C 1294.46 459.436 1293.255 459.733 1292.17 459.57 C 1289.269 459.135 1288.002 455.786 1286.864 453.083 C 1283.739 445.661 1277.756 439.903 1272.646 433.679 C 1268.875 429.084 1265.529 424.157 1262.65 418.956 C 1260.934 415.854 1259.362 412.625 1257.033 409.953 C 1254.703 407.281 1251.439 405.18 1247.894 405.172 C 1244.762 405.166 1241.873 406.756 1239.18 408.355 C 1230.978 413.227 1223.086 418.604 1215.55 424.454 C 1211.606 427.516 1207.687 430.751 1203.061 432.628 C 1201.113 433.419 1199.06 433.959 1197.191 434.92 C 1193.918 436.605 1191.434 439.455 1188.76 441.985 C 1179.223 451.008 1166.165 456.854 1153.043 457.321 Z " fill="rgb(63,61,86)"/><path d=" M 1201.319 393.098 C 1201.212 395.856 1200.625 398.575 1199.585 401.131 C 1198.52 403.709 1196.431 405.728 1193.818 406.704 C 1191.982 407.196 1190.058 407.258 1188.195 406.887 C 1186.57 406.717 1185.004 406.183 1183.613 405.326 C 1181.448 403.837 1180.369 401.182 1179.976 398.583 C 1179.582 395.987 1179.759 393.334 1179.507 390.719 C 1179.262 388.607 1178.86 386.516 1178.305 384.464 C 1178.135 383.781 1177.962 383.101 1177.792 382.422 C 1177.625 381.742 1177.461 381.062 1177.31 380.383 C 1177.172 379.744 1177.043 379.102 1176.933 378.457 C 1176.842 377.912 1176.76 377.365 1176.7 376.814 C 1176.645 375.182 1176.373 373.564 1175.891 372.003 C 1175.439 370.991 1174.873 370.033 1174.205 369.149 C 1173.918 368.74 1173.641 368.331 1173.387 367.906 C 1172.649 366.802 1172.307 365.482 1172.414 364.158 C 1172.445 363.954 1172.494 363.753 1172.562 363.557 C 1172.587 363.482 1172.616 363.406 1172.647 363.334 C 1173.222 363.178 1173.682 362.748 1173.878 362.186 C 1173.986 361.59 1173.935 360.977 1173.73 360.408 C 1173.494 359.612 1173.173 358.845 1172.77 358.12 C 1172.506 357.642 1171.609 356.78 1171.603 356.232 C 1171.59 355.131 1173.742 354.243 1174.614 353.809 C 1177.274 352.477 1180.241 351.875 1183.21 352.066 C 1185.114 352.195 1187.178 352.78 1188.229 354.376 C 1189.173 355.814 1189.047 357.676 1189.45 359.347 C 1189.493 359.59 1189.595 359.818 1189.749 360.011 C 1189.954 360.198 1190.213 360.317 1190.489 360.351 C 1190.955 360.444 1191.433 360.463 1191.905 360.408 L 1191.908 360.408 C 1192.032 360.398 1192.157 360.38 1192.279 360.354 C 1193.014 360.219 1193.709 359.918 1194.312 359.476 Q 1194.897 359.32 1195.492 359.221 C 1195.508 359.22 1195.524 359.217 1195.539 359.212 C 1197.115 364.187 1197.32 369.52 1198.61 374.586 C 1199.249 377.107 1200.164 379.596 1200.293 382.189 C 1200.303 382.302 1200.306 382.418 1200.309 382.535 C 1200.328 383.369 1200.262 384.209 1200.297 385.039 C 1200.309 385.414 1200.351 385.786 1200.423 386.153 C 1200.564 386.744 1200.739 387.326 1200.948 387.897 L 1200.957 387.925 C 1201.017 388.107 1201.074 388.293 1201.121 388.479 C 1201.156 388.614 1201.187 388.746 1201.212 388.881 L 1201.215 388.891 C 1201.448 390.281 1201.483 391.698 1201.319 393.098 L 1201.319 393.098 Z " fill="rgb(251,190,190)"/><circle vector-effect="non-scaling-stroke" cx="1179.2361936599284" cy="341.99678" r="18.565110000000004" fill="rgb(251,190,190)"/><path d=" M 1297.103 443.148 C 1296.565 438.083 1294.764 433.234 1291.867 429.045 Q 1292.589 433.34 1293.314 437.632 C 1292.086 437.988 1290.764 437.581 1289.947 436.597 C 1289.165 435.621 1288.567 434.511 1288.182 433.321 C 1286.073 428.085 1283.315 423.135 1279.972 418.586 C 1268.154 417.601 1256.47 412.702 1246.077 406.99 C 1235.68 401.282 1225.951 394.438 1215.693 388.488 C 1213.915 387.413 1212.062 386.467 1210.149 385.656 C 1206.939 384.369 1203.336 383.702 1200.293 382.189 C 1200.089 382.088 1199.884 381.981 1199.683 381.871 C 1198.996 381.497 1198.345 381.06 1197.738 380.565 C 1197.411 380.299 1197.1 380.013 1196.807 379.709 C 1195.289 377.943 1194.085 375.929 1193.248 373.756 C 1191.615 370.143 1191.033 365.785 1189.403 362.173 C 1190.152 361.473 1190.994 360.879 1191.905 360.408 L 1191.908 360.408 C 1192.04 360.338 1192.172 360.272 1192.307 360.209 C 1192.952 359.906 1193.623 359.66 1194.312 359.476 Q 1194.897 359.321 1195.492 359.221 C 1195.508 359.22 1195.524 359.217 1195.539 359.212 C 1197.377 358.912 1199.261 359.061 1201.03 359.646 C 1203.616 360.521 1205.797 362.267 1207.971 363.919 C 1211.504 366.408 1214.892 369.095 1218.119 371.968 C 1219.913 373.686 1221.549 375.574 1223.478 377.135 C 1225.081 378.372 1226.771 379.492 1228.534 380.486 Q 1244.191 389.813 1259.85 399.136 C 1263.383 401.241 1266.92 403.347 1270.375 405.574 C 1275.624 408.96 1280.684 412.629 1285.74 416.295 Q 1290.21 419.533 1294.677 422.774 C 1295.654 423.397 1296.511 424.19 1297.21 425.115 C 1297.827 426.165 1298.21 427.336 1298.333 428.548 C 1299.08 433.444 1298.659 438.447 1297.103 443.148 Z " fill="rgb(251,190,190)"/><path d=" M 1205.923 407.06 C 1204.67 412.676 1198.994 416.072 1196.027 421.005 C 1192.339 427.129 1193.843 434.246 1195.227 441.26 Q 1191.433 444.531 1187.635 447.802 C 1186.237 449.001 1184.84 450.206 1183.336 451.267 C 1181.143 452.736 1178.851 454.052 1176.477 455.206 Q 1173.116 456.934 1169.755 458.664 C 1167.673 459.835 1165.466 460.77 1163.176 461.452 C 1158.761 462.585 1154.073 461.792 1149.705 460.48 C 1149.19 460.345 1148.695 460.143 1148.232 459.879 C 1147.96 459.716 1147.723 459.501 1147.534 459.246 C 1147.103 458.474 1146.947 457.579 1147.09 456.707 C 1147.534 449.357 1149.331 442.16 1151.121 435.017 C 1152.078 430.732 1153.365 426.527 1154.969 422.44 C 1156.543 418.938 1158.353 415.547 1160.385 412.289 C 1162.628 408.191 1165.285 404.333 1168.314 400.776 C 1169.789 399.407 1171.031 397.806 1171.99 396.037 C 1173.107 393.488 1172.676 390.565 1172.902 387.79 C 1173.075 385.704 1173.629 383.669 1174.535 381.783 L 1174.535 381.78 C 1175.02 380.764 1175.604 379.798 1176.278 378.897 Q 1176.736 379.964 1177.194 381.028 Q 1177.496 381.726 1177.792 382.422 Q 1178.179 383.318 1178.56 384.209 Q 1179.659 386.767 1180.756 389.322 C 1181.546 391.468 1182.672 393.474 1184.091 395.266 C 1185.411 397.133 1187.615 398.169 1189.895 397.994 C 1192.175 397.819 1194.195 396.46 1195.215 394.413 C 1196.272 392.536 1197.038 390.508 1197.487 388.4 C 1198.108 385.833 1198.194 383.166 1197.738 380.565 C 1196.98 375.556 1194.85 370.439 1193.302 365.785 C 1192.671 364.234 1192.307 362.587 1192.222 360.914 C 1192.225 360.726 1192.244 360.539 1192.279 360.354 C 1192.288 360.307 1192.298 360.257 1192.307 360.209 C 1192.952 359.906 1193.623 359.66 1194.312 359.476 Q 1194.897 359.321 1195.492 359.221 Q 1197.535 370.285 1199.585 381.349 C 1199.617 381.522 1199.652 381.695 1199.683 381.871 C 1199.878 382.928 1200.076 383.985 1200.297 385.04 C 1200.495 385.996 1200.709 386.95 1200.948 387.897 L 1200.957 387.925 C 1201.039 388.246 1201.124 388.564 1201.212 388.882 L 1201.215 388.891 C 1201.458 389.759 1201.728 390.622 1202.034 391.471 C 1203.884 396.591 1207.109 401.745 1205.923 407.06 Z " fill="rgb(235,52,52)"/><path d=" M 1281.267 485.993 C 1281.208 487.075 1281.418 488.154 1281.877 489.136 C 1283.039 491.259 1285.827 491.742 1288.239 491.941 C 1302.331 493.099 1316.509 492.667 1330.505 490.653 C 1331.264 490.601 1332.001 490.372 1332.656 489.985 C 1334.646 488.59 1333.42 485.19 1331.247 484.102 C 1329.074 483.013 1326.496 483.276 1324.111 482.804 C 1321.743 482.208 1319.487 481.23 1317.434 479.908 Q 1310.181 475.741 1303.141 471.22 C 1300.346 469.425 1297.048 467.51 1293.901 468.574 C 1285.376 471.458 1281.211 476.796 1281.267 485.993 Z " fill="rgb(29,27,47)"/><path d=" M 1177.383 379.989 L 1177.383 379.992 C 1177.361 380.124 1177.339 380.253 1177.31 380.383 C 1177.276 380.597 1177.235 380.814 1177.194 381.028 C 1176.804 383.026 1176.326 385.014 1175.775 386.99 C 1174.265 392.45 1172.241 397.821 1170.234 403.114 Q 1162.153 424.401 1154.069 445.691 C 1152.71 449.265 1151.354 452.843 1149.809 456.345 C 1149.293 457.513 1148.761 458.689 1148.232 459.879 C 1146.338 464.136 1144.519 468.532 1143.915 473.063 C 1143.352 476.045 1143.287 479.1 1143.723 482.103 C 1144.328 485.074 1146.131 487.975 1148.953 489.073 C 1150.331 489.611 1152.304 490.332 1151.927 491.764 C 1151.722 492.55 1150.828 492.934 1150.026 493.066 C 1147.881 493.408 1145.695 492.779 1144.06 491.348 C 1142.553 490.011 1141.395 487.931 1139.39 487.708 C 1138.003 487.557 1136.725 488.387 1135.454 488.969 C 1130.268 491.339 1124.227 489.681 1118.78 487.997 C 1119.208 485.791 1121.423 484.338 1123.623 483.897 C 1125.822 483.453 1128.097 483.768 1130.341 483.708 C 1131.059 483.747 1131.772 483.563 1132.383 483.183 C 1132.93 482.68 1133.314 482.025 1133.484 481.301 C 1134.929 477.019 1136.004 472.621 1136.697 468.155 C 1137.421 463.488 1137.723 458.749 1138.755 454.139 C 1139.557 450.543 1140.797 447.06 1141.86 443.529 C 1143.917 436.26 1145.606 428.892 1146.92 421.452 C 1147.585 418.362 1148.061 415.233 1148.346 412.085 C 1148.525 409.473 1148.44 406.849 1148.692 404.246 C 1149.114 400.861 1149.821 397.517 1150.803 394.25 Q 1152.247 388.902 1153.689 383.561 C 1155.114 378.29 1156.643 372.815 1160.256 368.718 C 1162.792 365.803 1166.423 364.069 1170.284 363.929 C 1171 363.928 1171.715 364.005 1172.414 364.158 C 1172.531 364.187 1172.647 364.215 1172.764 364.247 C 1173.526 364.446 1174.258 364.749 1174.938 365.147 C 1176.052 364.439 1176.618 364.687 1177.358 365.779 C 1178.006 366.935 1178.311 368.251 1178.239 369.574 C 1178.301 373.065 1178.014 376.555 1177.383 379.989 L 1177.383 379.989 Z " fill="rgb(251,190,190)"/><path d=" M 1178.607 384.162 L 1178.56 384.209 L 1178.305 384.464 L 1175.775 386.99 L 1174.535 381.783 L 1170.284 363.929 C 1171 363.928 1171.715 364.005 1172.414 364.158 C 1172.445 363.954 1172.494 363.753 1172.562 363.557 L 1172.764 364.247 L 1174.205 369.149 L 1176.933 378.457 L 1177.383 379.989 L 1177.383 379.992 L 1178.607 384.162 Z " fill="rgb(235,52,52)"/><path d=" M 1194.661 327.203 C 1194.656 330.542 1193.325 333.742 1190.96 336.099 C 1190.536 336.523 1190.082 336.917 1189.6 337.275 C 1187.429 338.912 1184.784 339.798 1182.064 339.799 L 1166.969 339.799 C 1160.023 339.788 1154.398 334.155 1154.398 327.209 C 1154.398 320.263 1160.023 314.629 1166.969 314.619 L 1182.065 314.619 C 1189.009 314.637 1194.636 320.258 1194.661 327.203 L 1194.661 327.203 Z " fill="rgb(47,46,65)"/><g opacity="0.1"><path d=" M 1147.141 302.349 C 1147.299 302.349 1147.456 302.356 1147.613 302.361 C 1140.676 302.613 1135.183 308.31 1135.183 315.25 C 1135.183 322.191 1140.676 327.888 1147.613 328.14 C 1147.456 328.145 1147.299 328.152 1147.141 328.152 C 1140.02 328.145 1134.251 322.371 1134.251 315.25 C 1134.251 308.13 1140.02 302.356 1147.141 302.349 L 1147.141 302.349 Z " fill="rgb(0,0,0)"/></g><g opacity="0.1"><path d=" M 1189.6 337.275 C 1187.429 338.912 1184.784 339.798 1182.064 339.799 L 1166.969 339.799 C 1164.249 339.798 1161.604 338.912 1159.433 337.275 L 1189.6 337.275 Z " fill="rgb(0,0,0)"/></g><path d=" M 1287.085 430.756 C 1287.085 430.756 1290.337 440.128 1293.314 437.632 L 1290.942 425.382 L 1287.085 430.756 Z " fill="rgb(251,190,190)"/><path d=" M 1682.863 716.55 C 1691.17 719.57 1700.479 717.013 1706.078 710.174 C 1711.677 703.335 1712.346 693.705 1707.746 686.157 C 1703.145 678.61 1694.28 674.792 1685.635 676.634 L 1686.156 687.347 L 1681.088 678.166 C 1676.114 680.503 1672.271 684.72 1670.404 689.889 C 1669.741 691.699 1669.338 693.595 1669.207 695.519 C 1668.55 704.793 1674.124 713.377 1682.863 716.55 Z " fill="rgb(87,184,148)"/><mask id="_mask_zzRzkBDvfuDlTMzSZ2mG631KLyZJCR8o" x="-200%" y="-200%" width="400%" height="400%"><rect x="-200%" y="-200%" width="400%" height="400%" style="fill:white;"/><path d=" M 1707.941 840.793 C 1706.152 831.683 1713.904 823.606 1721.562 818.357 C 1729.219 813.107 1738.167 807.949 1740.779 799.04 C 1744.534 786.236 1733.349 774.51 1724.644 764.398 C 1718.185 756.894 1712.638 748.65 1708.12 739.841 C 1706.309 736.308 1704.644 732.615 1704.168 728.674 C 1703.481 722.999 1705.305 717.351 1707.142 711.938 Q 1716.321 684.886 1726.77 658.288" fill="black" stroke="none"/></mask><path d=" M 1707.941 840.793 C 1706.152 831.683 1713.904 823.606 1721.562 818.357 C 1729.219 813.107 1738.167 807.949 1740.779 799.04 C 1744.534 786.236 1733.349 774.51 1724.644 764.398 C 1718.185 756.894 1712.638 748.65 1708.12 739.841 C 1706.309 736.308 1704.644 732.615 1704.168 728.674 C 1703.481 722.999 1705.305 717.351 1707.142 711.938 Q 1716.321 684.886 1726.77 658.288" fill="none"/><path d=" M 1707.941 840.793 C 1706.152 831.683 1713.904 823.606 1721.562 818.357 C 1729.219 813.107 1738.167 807.949 1740.779 799.04 C 1744.534 786.236 1733.349 774.51 1724.644 764.398 C 1718.185 756.894 1712.638 748.65 1708.12 739.841 C 1706.309 736.308 1704.644 732.615 1704.168 728.674 C 1703.481 722.999 1705.305 717.351 1707.142 711.938 Q 1716.321 684.886 1726.77 658.288" fill="none" mask="url(#_mask_zzRzkBDvfuDlTMzSZ2mG631KLyZJCR8o)" vector-effect="non-scaling-stroke" stroke-width="2" stroke="rgb(63,61,86)" stroke-linejoin="miter" stroke-linecap="butt" stroke-miterlimit="10"/><mask id="_mask_lZgwUpwctr2GUapYbiIVyH3tPI1IH6mi" x="-200%" y="-200%" width="400%" height="400%"><rect x="-200%" y="-200%" width="400%" height="400%" style="fill:white;"/><path d=" M 1683.72 713.792 C 1692.027 716.812 1701.336 714.255 1706.935 707.416 C 1712.534 700.577 1713.203 690.947 1708.603 683.399 C 1704.002 675.852 1695.137 672.034 1686.492 673.876 L 1687.013 684.589 L 1681.945 675.408 C 1676.971 677.745 1673.128 681.962 1671.261 687.131 C 1670.598 688.941 1670.195 690.837 1670.064 692.761 C 1669.407 702.035 1674.981 710.619 1683.72 713.792 L 1683.72 713.792 Z " fill="black" stroke="none"/></mask><path d=" M 1683.72 713.792 C 1692.027 716.812 1701.336 714.255 1706.935 707.416 C 1712.534 700.577 1713.203 690.947 1708.603 683.399 C 1704.002 675.852 1695.137 672.034 1686.492 673.876 L 1687.013 684.589 L 1681.945 675.408 C 1676.971 677.745 1673.128 681.962 1671.261 687.131 C 1670.598 688.941 1670.195 690.837 1670.064 692.761 C 1669.407 702.035 1674.981 710.619 1683.72 713.792 L 1683.72 713.792 Z " fill="none"/><path d=" M 1683.72 713.792 C 1692.027 716.812 1701.336 714.255 1706.935 707.416 C 1712.534 700.577 1713.203 690.947 1708.603 683.399 C 1704.002 675.852 1695.137 672.034 1686.492 673.876 L 1687.013 684.589 L 1681.945 675.408 C 1676.971 677.745 1673.128 681.962 1671.261 687.131 C 1670.598 688.941 1670.195 690.837 1670.064 692.761 C 1669.407 702.035 1674.981 710.619 1683.72 713.792 L 1683.72 713.792 Z " fill="none" mask="url(#_mask_lZgwUpwctr2GUapYbiIVyH3tPI1IH6mi)" vector-effect="non-scaling-stroke" stroke-width="2" stroke="rgb(63,61,86)" stroke-linejoin="miter" stroke-linecap="butt" stroke-miterlimit="10"/><path d=" M 1705.397 654.588 C 1707.813 647.922 1713.46 642.947 1720.377 641.391 L 1722.09 651.574 L 1725.267 640.879 C 1734.318 641.013 1742.245 646.983 1744.873 655.645 C 1747.501 664.307 1744.227 673.675 1736.777 678.815 C 1729.326 683.956 1719.407 683.69 1712.242 678.158 C 1705.076 672.627 1702.309 663.097 1705.397 654.588 L 1705.397 654.588 Z " fill="rgb(87,184,148)"/><mask id="_mask_GP7JTN8oO2IhMb3NPheW1xSDSpD59s0N" x="-200%" y="-200%" width="400%" height="400%"><rect x="-200%" y="-200%" width="400%" height="400%" style="fill:white;"/><path d=" M 1706.54 650.911 C 1708.956 644.245 1714.602 639.27 1721.52 637.713 L 1723.233 647.897 L 1726.41 637.201 C 1735.461 637.336 1743.387 643.305 1746.015 651.968 C 1748.643 660.63 1745.37 669.997 1737.919 675.138 C 1730.469 680.278 1720.549 680.013 1713.384 674.481 C 1706.219 668.949 1703.452 659.42 1706.54 650.911 L 1706.54 650.911 Z " fill="black" stroke="none"/></mask><path d=" M 1706.54 650.911 C 1708.956 644.245 1714.602 639.27 1721.52 637.713 L 1723.233 647.897 L 1726.41 637.201 C 1735.461 637.336 1743.387 643.305 1746.015 651.968 C 1748.643 660.63 1745.37 669.997 1737.919 675.138 C 1730.469 680.278 1720.549 680.013 1713.384 674.481 C 1706.219 668.949 1703.452 659.42 1706.54 650.911 L 1706.54 650.911 Z " fill="none"/><path d=" M 1706.54 650.911 C 1708.956 644.245 1714.602 639.27 1721.52 637.713 L 1723.233 647.897 L 1726.41 637.201 C 1735.461 637.336 1743.387 643.305 1746.015 651.968 C 1748.643 660.63 1745.37 669.997 1737.919 675.138 C 1730.469 680.278 1720.549 680.013 1713.384 674.481 C 1706.219 668.949 1703.452 659.42 1706.54 650.911 L 1706.54 650.911 Z " fill="none" mask="url(#_mask_GP7JTN8oO2IhMb3NPheW1xSDSpD59s0N)" vector-effect="non-scaling-stroke" stroke-width="2" stroke="rgb(63,61,86)" stroke-linejoin="miter" stroke-linecap="butt" stroke-miterlimit="10"/><path d=" M 1720.99 764.604 C 1730.936 768.212 1742.005 763.783 1746.718 754.311 C 1751.43 744.839 1748.286 733.338 1739.409 727.582 L 1736.968 735.801 L 1735.237 725.497 C 1735.22 725.489 1735.202 725.482 1735.184 725.477 C 1728.193 722.936 1720.378 724.32 1714.684 729.106 C 1708.991 733.892 1706.284 741.353 1707.585 748.676 C 1708.886 756 1713.996 762.072 1720.99 764.604 L 1720.99 764.604 Z " fill="rgb(87,184,148)"/><mask id="_mask_ENLvBy7gaKnJkx6XigYH3RDVOZlY0Gn2" x="-200%" y="-200%" width="400%" height="400%"><rect x="-200%" y="-200%" width="400%" height="400%" style="fill:white;"/><path d=" M 1721.981 760.88 C 1731.926 764.487 1742.996 760.059 1747.708 750.586 C 1752.421 741.114 1749.276 729.614 1740.4 723.857 L 1737.958 732.076 L 1736.227 721.772 C 1736.21 721.764 1736.192 721.758 1736.174 721.752 C 1729.184 719.212 1721.368 720.595 1715.675 725.381 C 1709.981 730.167 1707.274 737.628 1708.575 744.952 C 1709.876 752.275 1714.987 758.347 1721.98 760.88 L 1721.981 760.88 Z " fill="black" stroke="none"/></mask><path d=" M 1721.981 760.88 C 1731.926 764.487 1742.996 760.059 1747.708 750.586 C 1752.421 741.114 1749.276 729.614 1740.4 723.857 L 1737.958 732.076 L 1736.227 721.772 C 1736.21 721.764 1736.192 721.758 1736.174 721.752 C 1729.184 719.212 1721.368 720.595 1715.675 725.381 C 1709.981 730.167 1707.274 737.628 1708.575 744.952 C 1709.876 752.275 1714.987 758.347 1721.98 760.88 L 1721.981 760.88 Z " fill="none"/><path d=" M 1721.981 760.88 C 1731.926 764.487 1742.996 760.059 1747.708 750.586 C 1752.421 741.114 1749.276 729.614 1740.4 723.857 L 1737.958 732.076 L 1736.227 721.772 C 1736.21 721.764 1736.192 721.758 1736.174 721.752 C 1729.184 719.212 1721.368 720.595 1715.675 725.381 C 1709.981 730.167 1707.274 737.628 1708.575 744.952 C 1709.876 752.275 1714.987 758.347 1721.98 760.88 L 1721.981 760.88 Z " fill="none" mask="url(#_mask_ENLvBy7gaKnJkx6XigYH3RDVOZlY0Gn2)" vector-effect="non-scaling-stroke" stroke-width="2" stroke="rgb(63,61,86)" stroke-linejoin="miter" stroke-linecap="butt" stroke-miterlimit="10"/><path d=" M 1699.323 799.167 C 1701.026 808.854 1709.28 816.025 1719.111 816.356 C 1728.941 816.687 1737.659 810.088 1740.009 800.537 C 1742.36 790.986 1737.699 781.095 1728.838 776.826 C 1719.977 772.558 1709.337 775.079 1703.334 782.87 L 1712.607 796.826 L 1699.937 789.418 C 1698.954 792.572 1698.744 795.915 1699.323 799.167 L 1699.323 799.167 Z " fill="rgb(87,184,148)"/><mask id="_mask_EJsqBgqiuY6ghaV3NS6R5SwtupdjXV17" x="-200%" y="-200%" width="400%" height="400%"><rect x="-200%" y="-200%" width="400%" height="400%" style="fill:white;"/><path d=" M 1700.18 796.409 C 1701.883 806.096 1710.138 813.267 1719.968 813.598 C 1729.798 813.929 1738.516 807.33 1740.866 797.779 C 1743.217 788.229 1738.557 778.337 1729.695 774.068 C 1720.834 769.8 1710.195 772.321 1704.191 780.112 L 1713.464 794.068 L 1700.794 786.661 C 1699.811 789.814 1699.601 793.157 1700.18 796.409 L 1700.18 796.409 Z " fill="black" stroke="none"/></mask><path d=" M 1700.18 796.409 C 1701.883 806.096 1710.138 813.267 1719.968 813.598 C 1729.798 813.929 1738.516 807.33 1740.866 797.779 C 1743.217 788.229 1738.557 778.337 1729.695 774.068 C 1720.834 769.8 1710.195 772.321 1704.191 780.112 L 1713.464 794.068 L 1700.794 786.661 C 1699.811 789.814 1699.601 793.157 1700.18 796.409 L 1700.18 796.409 Z " fill="none"/><path d=" M 1700.18 796.409 C 1701.883 806.096 1710.138 813.267 1719.968 813.598 C 1729.798 813.929 1738.516 807.33 1740.866 797.779 C 1743.217 788.229 1738.557 778.337 1729.695 774.068 C 1720.834 769.8 1710.195 772.321 1704.191 780.112 L 1713.464 794.068 L 1700.794 786.661 C 1699.811 789.814 1699.601 793.157 1700.18 796.409 L 1700.18 796.409 Z " fill="none" mask="url(#_mask_EJsqBgqiuY6ghaV3NS6R5SwtupdjXV17)" vector-effect="non-scaling-stroke" stroke-width="2" stroke="rgb(63,61,86)" stroke-linejoin="miter" stroke-linecap="butt" stroke-miterlimit="10"/><path d=" M 685.007 767.249 C 690.465 769.233 696.581 767.553 700.26 763.06 C 703.938 758.566 704.378 752.239 701.355 747.281 C 698.333 742.322 692.508 739.813 686.828 741.024 L 687.17 748.062 L 683.84 742.03 C 680.572 743.566 678.048 746.336 676.821 749.732 C 676.385 750.922 676.121 752.167 676.034 753.431 C 675.603 759.524 679.265 765.164 685.007 767.249 Z " fill="rgb(87,184,148)"/><mask id="_mask_6ePH0TqqcTd4c3HxREqStDvFBlwtIYxQ" x="-200%" y="-200%" width="400%" height="400%"><rect x="-200%" y="-200%" width="400%" height="400%" style="fill:white;"/><path d=" M 701.483 848.879 C 700.308 842.893 705.401 837.587 710.432 834.138 C 715.464 830.689 721.342 827.3 723.059 821.446 C 725.526 813.034 718.177 805.33 712.457 798.686 C 708.214 793.756 704.57 788.34 701.601 782.551 C 700.31 780.278 699.431 777.794 699.004 775.215 C 698.553 771.486 699.751 767.775 700.958 764.219 Q 706.989 746.445 713.855 728.969" fill="black" stroke="none"/></mask><path d=" M 701.483 848.879 C 700.308 842.893 705.401 837.587 710.432 834.138 C 715.464 830.689 721.342 827.3 723.059 821.446 C 725.526 813.034 718.177 805.33 712.457 798.686 C 708.214 793.756 704.57 788.34 701.601 782.551 C 700.31 780.278 699.431 777.794 699.004 775.215 C 698.553 771.486 699.751 767.775 700.958 764.219 Q 706.989 746.445 713.855 728.969" fill="none"/><path d=" M 701.483 848.879 C 700.308 842.893 705.401 837.587 710.432 834.138 C 715.464 830.689 721.342 827.3 723.059 821.446 C 725.526 813.034 718.177 805.33 712.457 798.686 C 708.214 793.756 704.57 788.34 701.601 782.551 C 700.31 780.278 699.431 777.794 699.004 775.215 C 698.553 771.486 699.751 767.775 700.958 764.219 Q 706.989 746.445 713.855 728.969" fill="none" mask="url(#_mask_6ePH0TqqcTd4c3HxREqStDvFBlwtIYxQ)" vector-effect="non-scaling-stroke" stroke-width="2" stroke="rgb(63,61,86)" stroke-linejoin="miter" stroke-linecap="butt" stroke-miterlimit="10"/><mask id="_mask_ChKLQyQvBPg3hglAtPR8pHws09BKrVP0" x="-200%" y="-200%" width="400%" height="400%"><rect x="-200%" y="-200%" width="400%" height="400%" style="fill:white;"/><path d=" M 685.57 765.437 C 691.028 767.421 697.144 765.741 700.823 761.248 C 704.501 756.754 704.941 750.427 701.918 745.469 C 698.896 740.51 693.071 738.001 687.391 739.212 L 687.733 746.25 L 684.404 740.218 C 681.135 741.754 678.611 744.524 677.384 747.92 C 676.949 749.11 676.684 750.355 676.598 751.619 C 676.166 757.712 679.828 763.352 685.57 765.437 Z " fill="black" stroke="none"/></mask><path d=" M 685.57 765.437 C 691.028 767.421 697.144 765.741 700.823 761.248 C 704.501 756.754 704.941 750.427 701.918 745.469 C 698.896 740.51 693.071 738.001 687.391 739.212 L 687.733 746.25 L 684.404 740.218 C 681.135 741.754 678.611 744.524 677.384 747.92 C 676.949 749.11 676.684 750.355 676.598 751.619 C 676.166 757.712 679.828 763.352 685.57 765.437 Z " fill="none"/><path d=" M 685.57 765.437 C 691.028 767.421 697.144 765.741 700.823 761.248 C 704.501 756.754 704.941 750.427 701.918 745.469 C 698.896 740.51 693.071 738.001 687.391 739.212 L 687.733 746.25 L 684.404 740.218 C 681.135 741.754 678.611 744.524 677.384 747.92 C 676.949 749.11 676.684 750.355 676.598 751.619 C 676.166 757.712 679.828 763.352 685.57 765.437 Z " fill="none" mask="url(#_mask_ChKLQyQvBPg3hglAtPR8pHws09BKrVP0)" vector-effect="non-scaling-stroke" stroke-width="2" stroke="rgb(63,61,86)" stroke-linejoin="miter" stroke-linecap="butt" stroke-miterlimit="10"/><path d=" M 699.812 726.539 C 701.399 722.159 705.109 718.891 709.654 717.868 L 710.78 724.559 L 712.867 717.532 C 718.814 717.62 724.022 721.542 725.748 727.233 C 727.475 732.924 725.324 739.079 720.429 742.456 C 715.534 745.834 709.017 745.659 704.309 742.025 C 699.601 738.39 697.783 732.13 699.812 726.539 L 699.812 726.539 Z " fill="rgb(87,184,148)"/><mask id="_mask_jIyRtn3aA7zTUm6fs2qbMm77JRhUk8In" x="-200%" y="-200%" width="400%" height="400%"><rect x="-200%" y="-200%" width="400%" height="400%" style="fill:white;"/><path d=" M 700.563 724.123 C 702.15 719.743 705.86 716.475 710.405 715.452 L 711.531 722.143 L 713.618 715.116 C 719.565 715.204 724.772 719.126 726.499 724.817 C 728.226 730.508 726.075 736.663 721.18 740.04 C 716.285 743.418 709.767 743.243 705.06 739.609 C 700.352 735.974 698.534 729.714 700.563 724.123 L 700.563 724.123 Z " fill="black" stroke="none"/></mask><path d=" M 700.563 724.123 C 702.15 719.743 705.86 716.475 710.405 715.452 L 711.531 722.143 L 713.618 715.116 C 719.565 715.204 724.772 719.126 726.499 724.817 C 728.226 730.508 726.075 736.663 721.18 740.04 C 716.285 743.418 709.767 743.243 705.06 739.609 C 700.352 735.974 698.534 729.714 700.563 724.123 L 700.563 724.123 Z " fill="none"/><path d=" M 700.563 724.123 C 702.15 719.743 705.86 716.475 710.405 715.452 L 711.531 722.143 L 713.618 715.116 C 719.565 715.204 724.772 719.126 726.499 724.817 C 728.226 730.508 726.075 736.663 721.18 740.04 C 716.285 743.418 709.767 743.243 705.06 739.609 C 700.352 735.974 698.534 729.714 700.563 724.123 L 700.563 724.123 Z " fill="none" mask="url(#_mask_jIyRtn3aA7zTUm6fs2qbMm77JRhUk8In)" vector-effect="non-scaling-stroke" stroke-width="2" stroke="rgb(63,61,86)" stroke-linejoin="miter" stroke-linecap="butt" stroke-miterlimit="10"/><path d=" M 710.057 798.822 C 716.592 801.192 723.864 798.282 726.961 792.059 C 730.057 785.835 727.991 778.279 722.159 774.497 L 720.555 779.897 L 719.417 773.127 C 719.406 773.122 719.395 773.118 719.383 773.114 C 714.789 771.444 709.654 772.352 705.912 775.497 C 702.171 778.642 700.392 783.544 701.247 788.356 C 702.103 793.169 705.461 797.158 710.057 798.822 L 710.057 798.822 Z " fill="rgb(87,184,148)"/><mask id="_mask_QzWkyVwBSsvSBZKGyMZNCx3x4n8StU5m" x="-200%" y="-200%" width="400%" height="400%"><rect x="-200%" y="-200%" width="400%" height="400%" style="fill:white;"/><path d=" M 710.708 796.374 C 717.242 798.745 724.515 795.835 727.611 789.611 C 730.707 783.388 728.641 775.832 722.809 772.05 L 721.205 777.45 L 720.068 770.68 C 720.057 770.675 720.045 770.671 720.033 770.667 C 715.441 769.001 710.309 769.912 706.57 773.056 C 702.831 776.2 701.054 781.1 701.907 785.909 C 702.761 790.719 706.115 794.709 710.708 796.374 L 710.708 796.374 Z " fill="black" stroke="none"/></mask><path d=" M 710.708 796.374 C 717.242 798.745 724.515 795.835 727.611 789.611 C 730.707 783.388 728.641 775.832 722.809 772.05 L 721.205 777.45 L 720.068 770.68 C 720.057 770.675 720.045 770.671 720.033 770.667 C 715.441 769.001 710.309 769.912 706.57 773.056 C 702.831 776.2 701.054 781.1 701.907 785.909 C 702.761 790.719 706.115 794.709 710.708 796.374 L 710.708 796.374 Z " fill="none"/><path d=" M 710.708 796.374 C 717.242 798.745 724.515 795.835 727.611 789.611 C 730.707 783.388 728.641 775.832 722.809 772.05 L 721.205 777.45 L 720.068 770.68 C 720.057 770.675 720.045 770.671 720.033 770.667 C 715.441 769.001 710.309 769.912 706.57 773.056 C 702.831 776.2 701.054 781.1 701.907 785.909 C 702.761 790.719 706.115 794.709 710.708 796.374 L 710.708 796.374 Z " fill="none" mask="url(#_mask_QzWkyVwBSsvSBZKGyMZNCx3x4n8StU5m)" vector-effect="non-scaling-stroke" stroke-width="2" stroke="rgb(63,61,86)" stroke-linejoin="miter" stroke-linecap="butt" stroke-miterlimit="10"/><path d=" M 695.822 821.53 C 696.94 827.895 702.364 832.606 708.822 832.823 C 715.281 833.041 721.009 828.705 722.553 822.43 C 724.097 816.155 721.035 809.656 715.213 806.852 C 709.391 804.047 702.401 805.703 698.457 810.822 L 704.549 819.992 L 696.224 815.125 C 695.579 817.197 695.441 819.393 695.822 821.53 Z " fill="rgb(87,184,148)"/><mask id="_mask_70vnTE8BtUjkoinEYotJXW565BMz0KNt" x="-200%" y="-200%" width="400%" height="400%"><rect x="-200%" y="-200%" width="400%" height="400%" style="fill:white;"/><path d=" M 696.385 819.718 C 697.503 826.082 702.927 830.794 709.385 831.011 C 715.844 831.229 721.572 826.893 723.116 820.618 C 724.66 814.343 721.598 807.844 715.776 805.04 C 709.955 802.235 702.964 803.891 699.02 809.01 L 705.112 818.18 L 696.788 813.313 C 696.142 815.385 696.004 817.581 696.385 819.718 Z " fill="black" stroke="none"/></mask><path d=" M 696.385 819.718 C 697.503 826.082 702.927 830.794 709.385 831.011 C 715.844 831.229 721.572 826.893 723.116 820.618 C 724.66 814.343 721.598 807.844 715.776 805.04 C 709.955 802.235 702.964 803.891 699.02 809.01 L 705.112 818.18 L 696.788 813.313 C 696.142 815.385 696.004 817.581 696.385 819.718 Z " fill="none"/><path d=" M 696.385 819.718 C 697.503 826.082 702.927 830.794 709.385 831.011 C 715.844 831.229 721.572 826.893 723.116 820.618 C 724.66 814.343 721.598 807.844 715.776 805.04 C 709.955 802.235 702.964 803.891 699.02 809.01 L 705.112 818.18 L 696.788 813.313 C 696.142 815.385 696.004 817.581 696.385 819.718 Z " fill="none" mask="url(#_mask_70vnTE8BtUjkoinEYotJXW565BMz0KNt)" vector-effect="non-scaling-stroke" stroke-width="2" stroke="rgb(63,61,86)" stroke-linejoin="miter" stroke-linecap="butt" stroke-miterlimit="10"/><ellipse vector-effect="non-scaling-stroke" cx="1156.9455036599284" cy="616.1155" rx="17" ry="22" fill="rgb(47,46,65)"/><ellipse vector-effect="non-scaling-stroke" cx="1249.4455036599284" cy="616.6155" rx="17" ry="22" fill="rgb(47,46,65)"/><path d=" M 1236.446 681.616 C 1236.446 691.556 1222.566 699.616 1205.446 699.616 C 1188.326 699.616 1174.446 691.556 1174.446 681.616 C 1174.446 673.006 1184.856 665.806 1198.766 664.046 C 1200.98 663.753 1203.212 663.61 1205.446 663.615 C 1209.188 663.603 1212.921 664.006 1216.576 664.816 C 1228.196 667.406 1236.446 673.956 1236.446 681.616 Z " fill="rgb(47,46,65)"/><ellipse vector-effect="non-scaling-stroke" cx="1160.9455036599284" cy="611.1155" rx="17" ry="22" fill="none" stroke-width="1" stroke="rgb(63,61,86)" stroke-linejoin="miter" stroke-linecap="butt" stroke-miterlimit="10"/><ellipse vector-effect="non-scaling-stroke" cx="1253.4455036599284" cy="611.6155" rx="17" ry="22" fill="none" stroke-width="1" stroke="rgb(63,61,86)" stroke-linejoin="miter" stroke-linecap="butt" stroke-miterlimit="10"/><ellipse vector-effect="non-scaling-stroke" cx="1209.4455036599284" cy="676.6155" rx="31" ry="18" fill="none" stroke-width="1" stroke="rgb(63,61,86)" stroke-linejoin="miter" stroke-linecap="butt" stroke-miterlimit="10"/><path d=" M 1216.946 666.316 C 1216.954 667.573 1216.481 668.786 1215.626 669.708 C 1214.808 670.6 1213.655 671.11 1212.446 671.116 L 1202.446 671.116 C 1199.88 671.026 1197.869 668.881 1197.946 666.316 C 1197.94 665.341 1198.226 664.386 1198.766 663.574 C 1200.978 663.263 1203.211 663.109 1205.446 663.116 C 1209.193 663.103 1212.929 663.533 1216.576 664.396 C 1216.822 665.005 1216.948 665.658 1216.946 666.316 Z " fill="rgb(93,93,93)"/><circle vector-effect="non-scaling-stroke" cx="1160.9455036599284" cy="605.1155" r="5" fill="rgb(93,93,93)"/><circle vector-effect="non-scaling-stroke" cx="1253.9455036599284" cy="605.1155" r="5" fill="rgb(93,93,93)"/><g opacity="0.3"><circle vector-effect="non-scaling-stroke" cx="1258.9455036599284" cy="652.1155" r="5" fill="rgb(235,52,52)"/></g><g opacity="0.3"><circle vector-effect="non-scaling-stroke" cx="1136.9455036599284" cy="652.1155" r="5" fill="rgb(235,52,52)"/></g></g></g></svg>