<?xml version="1.0" encoding="UTF-8" standalone="no"?>
<!-- Generator: Gravit.io -->
<svg xmlns="http://www.w3.org/2000/svg" xmlns:xlink="http://www.w3.org/1999/xlink" style="isolation:isolate" viewBox="339 314 706.535 428.76" width="706.535pt" height="428.76pt"><g><path d=" M 954.72 314 L 347.72 314 C 342.906 314.004 339.004 317.906 339 322.72 L 339 734.04 C 339.004 738.854 342.906 742.756 347.72 742.76 L 954.72 742.76 C 957.271 742.76 959.695 741.642 961.35 739.7 C 961.419 739.625 961.483 739.545 961.54 739.46 C 962.061 738.824 962.482 738.112 962.79 737.35 C 963.229 736.302 963.453 735.176 963.45 734.04 L 963.45 322.72 C 963.444 317.902 959.537 314 954.72 314 L 954.72 314 Z  M 960.96 734.04 C 960.961 735.257 960.602 736.446 959.93 737.46 C 959.332 738.352 958.521 739.081 957.57 739.58 C 956.689 740.035 955.711 740.272 954.72 740.27 L 347.72 740.27 C 344.281 740.266 341.494 737.479 341.49 734.04 L 341.49 322.72 C 341.494 319.281 344.281 316.494 347.72 316.49 L 954.72 316.49 C 958.162 316.49 960.955 319.277 960.96 322.72 L 960.96 734.04 Z " fill="rgb(255,255,255)"/><rect x="340.243" y="348.949" width="621.957" height="2.493" transform="matrix(1,0,0,1,0,0)" fill="rgb(255,255,255)"/><circle vector-effect="non-scaling-stroke" cx="361.43158000000005" cy="332.69610001212766" r="7.478439999999978" fill="rgb(255,255,255)"/><circle vector-effect="non-scaling-stroke" cx="382.93209" cy="332.69610001212766" r="7.478439999999978" fill="rgb(255,255,255)"/><circle vector-effect="non-scaling-stroke" cx="404.43260000000004" cy="332.69610001212766" r="7.478439999999978" fill="rgb(255,255,255)"/><path d=" M 414.052 505.746 L 392.052 505.746 C 389.568 505.743 387.554 503.73 387.552 501.246 L 387.552 479.246 C 387.554 476.762 389.568 474.749 392.052 474.746 L 414.052 474.746 C 416.536 474.749 418.549 476.762 418.552 479.246 L 418.552 501.246 C 418.549 503.73 416.536 505.743 414.052 505.746 L 414.052 505.746 Z " fill="rgb(20,20,20)"/><path d=" M 414.052 562.746 L 392.052 562.746 C 389.568 562.743 387.554 560.73 387.552 558.246 L 387.552 536.246 C 387.554 533.762 389.568 531.749 392.052 531.746 L 414.052 531.746 C 416.536 531.749 418.549 533.762 418.552 536.246 L 418.552 558.246 C 418.549 560.73 416.536 562.743 414.052 562.746 L 414.052 562.746 Z " fill="rgb(255,217,0)"/><path d=" M 414.052 619.746 L 392.052 619.746 C 389.568 619.743 387.554 617.73 387.552 615.246 L 387.552 593.246 C 387.554 590.762 389.568 588.749 392.052 588.746 L 414.052 588.746 C 416.536 588.749 418.549 590.762 418.552 593.246 L 418.552 615.246 C 418.549 617.73 416.536 619.743 414.052 619.746 L 414.052 619.746 Z " fill="rgb(204,204,204)"/><path d=" M 558.052 494.746 L 452.052 494.746 C 449.566 494.746 447.552 492.731 447.552 490.246 C 447.552 487.761 449.566 485.746 452.052 485.746 L 558.052 485.746 C 560.537 485.746 562.552 487.761 562.552 490.246 C 562.552 492.731 560.537 494.746 558.052 494.746 Z " fill="rgb(204,204,204)"/><path d=" M 558.052 551.746 L 452.052 551.746 C 449.566 551.746 447.552 549.731 447.552 547.246 C 447.552 544.761 449.566 542.746 452.052 542.746 L 558.052 542.746 C 560.537 542.746 562.552 544.761 562.552 547.246 C 562.552 549.731 560.537 551.746 558.052 551.746 Z " fill="rgb(204,204,204)"/><path d=" M 558.052 608.746 L 452.052 608.746 C 449.566 608.746 447.552 606.731 447.552 604.246 C 447.552 601.761 449.566 599.746 452.052 599.746 L 558.052 599.746 C 560.537 599.746 562.552 601.761 562.552 604.246 C 562.552 606.731 560.537 608.746 558.052 608.746 Z " fill="rgb(204,204,204)"/><path d=" M 921.822 485.816 C 922.312 486.04 922.784 486.304 923.232 486.603 L 968.085 467.46 L 969.685 455.645 L 987.607 455.535 L 986.548 482.633 L 927.348 498.289 C 927.224 498.701 927.074 499.104 926.901 499.498 C 924.512 504.596 918.453 506.807 913.342 504.446 C 908.231 502.085 905.986 496.039 908.318 490.915 C 910.651 485.79 916.684 483.512 921.822 485.816 L 921.822 485.816 Z " fill="rgb(255,184,184)"/><path d=" M 994.125 731.376 L 981.865 731.375 L 976.033 684.087 L 994.127 684.088 L 994.125 731.376 L 994.125 731.376 Z " fill="rgb(255,184,184)"/><path d=" M 973.108 727.872 L 996.752 727.872 L 996.752 742.759 L 958.221 742.759 L 958.221 742.759 C 958.221 738.811 959.789 735.024 962.581 732.233 C 965.373 729.441 969.16 727.872 973.108 727.872 L 973.108 727.872 Z " fill="rgb(47,46,65)"/><path d=" M 1041.805 727.911 L 1029.604 729.113 L 1019.163 682.625 L 1037.17 680.851 L 1041.805 727.911 L 1041.805 727.911 Z " fill="rgb(255,184,184)"/><path d=" M 1020.546 726.486 L 1044.076 724.168 L 1045.535 738.983 L 1007.19 742.76 L 1007.19 742.76 C 1006.803 738.831 1007.993 734.909 1010.498 731.857 C 1013.002 728.805 1016.617 726.873 1020.546 726.486 L 1020.546 726.486 Z " fill="rgb(47,46,65)"/><circle vector-effect="non-scaling-stroke" cx="997.5374400000001" cy="380.92823001212764" r="24.56102999999996" fill="rgb(255,184,184)"/><path d=" M 979.125 721.812 C 976.95 721.818 975.087 720.257 974.71 718.115 C 968.365 682.89 947.622 567.71 947.126 564.519 C 947.115 564.446 947.11 564.372 947.111 564.298 L 947.111 555.71 C 947.11 555.397 947.208 555.092 947.39 554.838 L 950.13 551 C 950.394 550.626 950.816 550.395 951.274 550.375 C 966.896 549.643 1018.058 547.496 1020.53 550.584 L 1020.53 550.584 C 1023.012 553.687 1022.135 563.091 1021.934 564.944 L 1021.944 565.138 L 1044.929 712.133 C 1045.303 714.572 1043.648 716.86 1041.214 717.268 L 1026.858 719.633 C 1024.648 719.988 1022.511 718.673 1021.832 716.54 C 1017.392 702.352 1002.503 654.622 997.343 636.153 C 997.276 635.911 997.04 635.756 996.792 635.792 C 996.543 635.827 996.36 636.041 996.363 636.292 C 996.62 653.897 997.243 698.815 997.458 714.329 L 997.482 716 C 997.502 718.345 995.724 720.315 993.389 720.536 L 979.545 721.794 C 979.405 721.807 979.264 721.812 979.125 721.812 Z " fill="rgb(47,46,65)"/><path d=" M 981.95 415.147 C 977.663 417.695 975.099 422.377 973.627 427.142 C 970.902 435.963 969.262 445.083 968.743 454.301 L 967.187 481.902 L 947.932 555.071 C 964.621 569.192 974.247 565.983 996.713 554.433 C 1019.178 542.882 1021.745 558.284 1021.745 558.284 L 1026.237 496.025 L 1032.655 427.993 C 1031.215 426.258 1029.584 424.69 1027.794 423.319 C 1015.774 413.972 1000.13 410.657 985.352 414.324 L 981.95 415.147 Z " fill="rgb(179,179,179)"/><path d=" M 975.696 500.593 C 976.213 500.788 976.715 501.024 977.196 501.297 L 1021.544 479.1 L 1022.28 467.075 L 1040.574 465.813 L 1041.555 493.226 L 982.289 512.825 C 981.298 517.075 977.781 520.269 973.455 520.846 C 969.13 521.423 964.899 519.264 962.828 515.422 C 960.758 511.581 961.28 506.859 964.14 503.563 C 967 500.267 971.601 499.085 975.696 500.593 L 975.696 500.593 Z " fill="rgb(255,184,184)"/><path d=" M 1032.334 428.304 C 1043.246 432.156 1045.168 473.878 1045.168 473.878 C 1032.331 466.818 1016.927 478.371 1016.927 478.371 C 1016.927 478.371 1013.717 467.46 1009.866 453.339 C 1007.503 445.266 1009.441 436.545 1015.001 430.233 C 1015.001 430.233 1021.423 424.451 1032.334 428.304 Z " fill="rgb(179,179,179)"/><path d=" M 1019.56 387.424 C 1016.5 384.975 1012.325 389.425 1012.325 389.425 L 1009.877 367.392 C 1009.877 367.392 994.576 369.225 984.783 366.78 C 984.783 366.78 973.461 375.655 973.461 375.655 C 972.956 371.083 972.853 366.475 973.155 361.884 C 973.766 356.376 981.723 350.868 995.8 347.195 C 1009.877 343.522 1017.221 359.436 1017.221 359.436 C 1027.014 364.332 1022.62 389.872 1019.56 387.424 Z " fill="rgb(42,42,42)"/><path d=" M 926.804 549.246 C 926.962 546.599 927.052 543.933 927.052 541.246 C 927.052 468.345 867.953 409.246 795.052 409.246 L 795.052 549.246 L 926.804 549.246 Z " fill="rgb(20,20,20)"/><path d=" M 785.052 561.246 L 785.052 421.246 C 713.189 421.243 654.528 478.727 653.073 550.574 C 651.619 622.422 707.906 682.233 779.709 685.138 C 851.513 688.044 912.448 632.976 916.804 561.246 L 785.052 561.246 Z " fill="rgb(255,217,0)"/></g></svg>