<?xml version="1.0" encoding="UTF-8" standalone="no"?>
<!-- Generator: Gravit.io -->
<svg xmlns="http://www.w3.org/2000/svg" xmlns:xlink="http://www.w3.org/1999/xlink" style="isolation:isolate" viewBox="703.606 836.806 874.201 747.925" width="874.201pt" height="747.925pt"><g><g style="opacity:0.5;"><g opacity="0.5"><linearGradient id="_lgradient_0" x1="0" y1="0.5000000000000004" x2="0.9999999999999999" y2="0.5000000000000002" gradientTransform="matrix(547.37,0,0,396.16,1067.428,938.9)" gradientUnits="userSpaceOnUse"><stop offset="0%" stop-opacity="0.25" style="stop-color:rgb(128,128,128)"/><stop offset="54%" stop-opacity="0.12" style="stop-color:rgb(128,128,128)"/><stop offset="100%" stop-opacity="0.1" style="stop-color:rgb(128,128,128)"/></linearGradient><rect x="1067.428" y="938.9" width="547.37" height="396.16" transform="matrix(0.149,-0.989,0.989,0.149,16.777,2293.457)" fill="url(#_lgradient_0)"/></g></g><rect x="1073.785" y="941.946" width="535.27" height="386.08" transform="matrix(0.149,-0.989,0.989,0.149,19.01,2292.065)" fill="rgb(245,245,245)"/><rect x="1203.853" y="1099.441" width="278.65" height="16.89" transform="matrix(0.989,0.149,-0.149,0.989,180.318,-187.99)" fill="rgb(224,224,224)"/><rect x="1197.555" y="1141.184" width="278.65" height="16.89" transform="matrix(0.989,0.149,-0.149,0.989,186.475,-186.583)" fill="rgb(224,224,224)"/><rect x="1358.348" y="975.924" width="143.55" height="16.89" transform="matrix(0.989,0.149,-0.149,0.989,162.863,-202.344)" fill="rgb(224,224,224)"/><rect x="1364.72" y="1017.678" width="118.22" height="16.89" transform="matrix(0.989,0.149,-0.149,0.989,169.022,-200.938)" fill="rgb(255,217,0)"/><rect x="1191.44" y="1180.414" width="244.88" height="16.89" transform="matrix(0.989,0.149,-0.149,0.989,192.07,-182.713)" fill="rgb(224,224,224)"/><rect x="1185.324" y="1219.644" width="211.1" height="16.89" transform="matrix(0.989,0.149,-0.149,0.989,197.666,-178.842)" fill="rgb(224,224,224)"/><rect x="1179.168" y="1259.501" width="185.77" height="16.89" transform="matrix(0.989,0.149,-0.149,0.989,203.401,-175.588)" fill="rgb(224,224,224)"/><rect x="1172.587" y="1305.029" width="236.43" height="16.89" transform="matrix(0.989,0.149,-0.149,0.989,210.403,-177.875)" fill="rgb(224,224,224)"/><rect x="1167.1" y="1336.064" width="92.88" height="16.89" transform="matrix(0.989,0.149,-0.149,0.989,214.169,-166.001)" fill="rgb(255,217,0)"/><g style="opacity:0.5;"><g opacity="0.5"><linearGradient id="_lgradient_1" x1="0" y1="0.5" x2="0.14919019325351762" y2="-0.48880851848928675" gradientTransform="matrix(112.726,0,0,113.406,1221.416,923.516)" gradientUnits="userSpaceOnUse"><stop offset="0%" stop-opacity="0.1" style="stop-color:rgb(128,128,128)"/></linearGradient><path d=" M 1333.508 988.281 C 1337.512 961.714 1322.207 936.015 1296.94 926.88 C 1271.674 917.745 1243.472 927.715 1229.561 950.7 C 1215.65 973.685 1219.897 1003.294 1239.708 1021.441 C 1239.708 1021.521 1239.708 1021.611 1239.708 1021.691 C 1241.262 1023.72 1243.203 1025.419 1245.418 1026.691 L 1245.528 1026.451 C 1247.798 1029.081 1258.248 1034.321 1270.878 1036.191 L 1271.158 1036.191 C 1279.158 1037.411 1288.048 1037.301 1296.298 1034.321 C 1296.298 1034.321 1296.388 1034.181 1296.538 1033.921 C 1298.61 1033.303 1300.569 1032.354 1302.338 1031.111 L 1302.518 1030.491 C 1319.161 1022.374 1330.748 1006.591 1333.508 988.281 L 1333.508 988.281 Z " fill="url(#_lgradient_1)"/></g></g><path d=" M 1269.372 1031.879 C 1239.536 1027.377 1218.968 999.5 1223.47 969.665 C 1227.971 939.829 1255.849 919.261 1285.684 923.763 C 1315.52 928.264 1336.088 956.142 1331.586 985.977 C 1327.085 1015.813 1299.207 1036.381 1269.372 1031.879 Z " fill="rgb(245,245,245)"/><path d=" M 1252.608 995.831 C 1252.608 995.831 1239.608 994.941 1239.438 1018.921 C 1240.947 1020.882 1242.83 1022.523 1244.978 1023.751 L 1255.918 1000.321 L 1252.608 995.831 Z " fill="rgb(253,165,125)"/><path d=" M 1294.408 1002.141 C 1294.408 1002.141 1307.128 1005.141 1300.188 1028.091 C 1298.169 1029.526 1295.885 1030.546 1293.468 1031.091 L 1289.918 1005.481 L 1294.408 1002.141 Z " fill="rgb(253,165,125)"/><path d=" M 1258.968 957.471 C 1258.968 957.471 1250.148 974.381 1247.058 972.201 C 1247.058 972.201 1275.118 1004.931 1307.808 981.361 C 1305.265 974.991 1301.969 968.948 1297.988 963.361 L 1258.968 957.471 Z " fill="rgb(51,51,51)"/><path d=" M 1276.335 982.899 C 1263.112 980.903 1253.996 968.548 1255.992 955.325 C 1257.987 942.102 1270.342 932.986 1283.565 934.981 C 1296.788 936.976 1305.904 949.331 1303.909 962.555 C 1301.914 975.778 1289.559 984.894 1276.335 982.899 Z " fill="rgb(51,51,51)"/><g opacity="0.1"><path d=" M 1294.158 1002.101 L 1252.358 995.801 L 1245.938 1011.931 C 1245.938 1011.931 1242.478 1019.321 1244.818 1023.161 C 1244.818 1023.161 1272.608 1038.751 1293.818 1031.161 C 1296.197 1026.96 1297.132 1022.095 1296.478 1017.311 C 1295.428 1009.171 1296.008 1016.671 1296.008 1016.671 L 1294.158 1002.101 Z " fill="rgb(0,0,0)"/></g><g opacity="0.1"><path d=" M 1294.718 1002.191 L 1252.918 995.891 L 1246.508 1012.011 C 1246.508 1012.011 1243.048 1019.401 1245.388 1023.241 C 1245.388 1023.241 1273.178 1038.831 1294.388 1031.241 C 1296.767 1027.04 1297.702 1022.175 1297.048 1017.391 C 1295.998 1009.251 1296.578 1016.751 1296.578 1016.751 L 1294.718 1002.191 Z " fill="rgb(0,0,0)"/></g><path d=" M 1294.408 1002.141 L 1252.608 995.841 L 1246.188 1011.971 C 1246.188 1011.971 1242.728 1019.361 1245.068 1023.201 C 1245.068 1023.201 1272.858 1038.791 1294.068 1031.201 C 1296.447 1027 1297.382 1022.135 1296.728 1017.351 C 1295.678 1009.211 1296.258 1016.711 1296.258 1016.711 L 1294.408 1002.141 Z " fill="rgb(253,216,53)"/><g opacity="0.1"><path d=" M 1267.509 983.946 L 1284.23 986.469 L 1281.954 1001.558 C 1281.687 1003.323 1280.731 1004.91 1279.294 1005.969 C 1277.858 1007.029 1276.06 1007.475 1274.295 1007.209 L 1270.874 1006.692 C 1269.109 1006.426 1267.522 1005.47 1266.462 1004.033 C 1265.402 1002.597 1264.957 1000.799 1265.223 999.034 L 1267.5 983.944 L 1267.509 983.946 Z " fill="rgb(0,0,0)"/></g><path d=" M 1267.591 983.326 L 1284.312 985.849 L 1282.035 1000.938 C 1281.769 1002.703 1280.812 1004.29 1279.376 1005.35 C 1277.94 1006.409 1276.141 1006.855 1274.376 1006.589 L 1270.965 1006.074 C 1269.2 1005.808 1267.613 1004.851 1266.553 1003.415 C 1265.494 1001.979 1265.048 1000.18 1265.314 998.415 L 1267.591 983.326 Z " fill="rgb(253,165,125)"/><g opacity="0.1"><path d=" M 1267.278 985.691 C 1272.362 988.518 1278.29 989.43 1283.988 988.261 L 1284.298 986.211 L 1267.578 983.691 L 1267.278 985.691 Z " fill="rgb(0,0,0)"/></g><path d=" M 1275.551 988.096 C 1262.328 986.101 1253.212 973.745 1255.207 960.522 C 1257.202 947.299 1269.557 938.183 1282.781 940.178 C 1296.004 942.173 1305.12 954.528 1303.125 967.752 C 1301.129 980.975 1288.774 990.091 1275.551 988.096 Z " fill="rgb(253,165,125)"/><path d=" M 1257.578 951.561 L 1303.278 958.451 C 1303.278 958.451 1302.158 939.451 1284.708 937.981 C 1267.258 936.511 1257.578 951.561 1257.578 951.561 Z " fill="rgb(51,51,51)"/><path d=" M 1255.218 963.748 C 1253.99 963.563 1253.276 961.538 1253.624 959.23 C 1253.973 956.921 1255.252 955.198 1256.48 955.383 C 1257.708 955.568 1258.422 957.593 1258.074 959.901 C 1257.726 962.21 1256.446 963.934 1255.218 963.748 Z " fill="rgb(253,165,125)"/><path d=" M 1302.033 970.815 C 1300.805 970.63 1300.091 968.606 1300.439 966.297 C 1300.787 963.989 1302.067 962.265 1303.295 962.45 C 1304.523 962.635 1305.237 964.66 1304.889 966.968 C 1304.54 969.277 1303.261 971.001 1302.033 970.815 Z " fill="rgb(253,165,125)"/><g opacity="0.1"><path d=" M 1257.508 952.181 L 1303.208 959.071 C 1303.208 959.071 1302.088 940.071 1284.638 938.601 C 1267.188 937.131 1257.508 952.181 1257.508 952.181 Z " fill="rgb(0,0,0)"/></g><g style="opacity:0.5;"><g opacity="0.5"><linearGradient id="_lgradient_2" x1="0" y1="0.5" x2="6.123233995736766e-17" y2="-0.5" gradientTransform="matrix(397.287,0,0,548.928,744.852,942.749)" gradientUnits="userSpaceOnUse"><stop offset="0%" stop-opacity="0.1" style="stop-color:rgb(128,128,128)"/></linearGradient><rect x="744.852" y="942.749" width="397.287" height="548.928" transform="matrix(0.987,-0.16,0.16,0.987,-182.116,166.123)" fill="url(#_lgradient_2)"/></g></g><rect x="749.668" y="945.44" width="386.08" height="535.27" transform="matrix(0.987,-0.162,0.162,0.987,-183.829,168.487)" fill="rgb(245,245,245)"/><rect x="796.798" y="1178.253" width="278.65" height="16.89" transform="matrix(0.987,-0.162,0.162,0.987,-179.648,167.074)" fill="rgb(224,224,224)"/><rect x="803.628" y="1219.919" width="278.65" height="16.89" transform="matrix(0.987,-0.162,0.162,0.987,-186.299,168.728)" fill="rgb(224,224,224)"/><rect x="909.162" y="1034.002" width="143.55" height="16.89" transform="matrix(0.987,-0.162,0.162,0.987,-155.722,172.424)" fill="rgb(224,224,224)"/><rect x="928.651" y="1075.669" width="118.22" height="16.89" transform="matrix(0.987,-0.162,0.162,0.987,-162.372,174.077)" fill="rgb(255,217,0)"/><rect x="810.68" y="1264.315" width="244.88" height="16.89" transform="matrix(0.987,-0.162,0.162,0.987,-193.611,167.722)" fill="rgb(224,224,224)"/><rect x="817.731" y="1308.702" width="211.1" height="16.89" transform="matrix(0.987,-0.162,0.162,0.987,-200.921,166.715)" fill="rgb(224,224,224)"/><rect x="824.729" y="1352.423" width="185.77" height="16.89" transform="matrix(0.987,-0.162,0.162,0.987,-208.069,166.374)" fill="rgb(224,224,224)"/><rect x="831.226" y="1389.98" width="236.43" height="16.89" transform="matrix(0.987,-0.162,0.162,0.987,-213.725,172.018)" fill="rgb(224,224,224)"/><rect x="839.008" y="1443.261" width="92.88" height="16.89" transform="matrix(0.987,-0.162,0.162,0.987,-223.188,162.367)" fill="rgb(255,217,0)"/><g style="opacity:0.5;"><g opacity="0.5"><linearGradient id="_lgradient_3" x1="0" y1="0.5" x2="0.16177605745605395" y2="1.4868274961886578" gradientTransform="matrix(115.894,0,0,116.167,780.196,1023.682)" gradientUnits="userSpaceOnUse"><stop offset="100%" stop-opacity="0.1" style="stop-color:rgb(128,128,128)"/><stop offset="100%" stop-opacity="0.10032287869758687" style="stop-color:rgb(128,128,128)"/><stop offset="100%" stop-opacity="0.12113330422852987" style="stop-color:rgb(128,128,128)"/></linearGradient><path d=" M 895.318 1072.241 C 890.846 1044.986 867.758 1024.677 840.155 1023.718 C 812.552 1022.758 788.109 1041.417 781.756 1068.296 C 775.403 1095.175 788.907 1122.801 814.018 1134.301 L 814.098 1134.551 C 816.259 1136.035 818.693 1137.075 821.258 1137.611 L 821.258 1137.341 C 824.308 1139.201 836.188 1141.031 849.138 1138.871 L 849.418 1138.871 C 857.628 1137.541 866.288 1134.621 873.418 1129.101 C 873.418 1129.101 873.418 1128.941 873.518 1128.641 C 875.351 1127.383 876.969 1125.836 878.308 1124.061 Q 878.308 1123.721 878.308 1123.401 C 892.059 1110.191 898.422 1091.055 895.318 1072.241 L 895.318 1072.241 Z " fill="url(#_lgradient_3)"/></g></g><path d=" M 782.696 1090.687 C 777.678 1060.078 798.454 1031.154 829.063 1026.136 C 859.672 1021.118 888.597 1041.895 893.615 1072.504 C 898.633 1103.113 877.856 1132.037 847.247 1137.055 C 816.638 1142.073 787.713 1121.296 782.696 1090.687 Z " fill="rgb(245,245,245)"/><path d=" M 817.698 1107.231 C 817.698 1107.231 804.698 1110.481 812.098 1133.981 C 814.193 1135.432 816.556 1136.451 819.048 1136.981 L 822.358 1110.601 L 817.698 1107.231 Z " fill="rgb(77,138,240)"/><path d=" M 860.578 1100.201 C 860.578 1100.201 873.968 1099.111 874.418 1123.771 C 872.889 1125.793 870.976 1127.492 868.788 1128.771 L 857.228 1104.831 L 860.578 1100.201 Z " fill="rgb(77,138,240)"/><path d=" M 808.171 1066.511 C 805.947 1052.944 815.156 1040.123 828.723 1037.899 C 842.29 1035.675 855.111 1044.884 857.335 1058.451 C 859.559 1072.018 850.35 1084.839 836.783 1087.063 C 823.216 1089.287 810.395 1080.078 808.171 1066.511 Z " fill="rgb(51,51,51)"/><path d=" M 860.328 1100.241 L 817.448 1107.241 L 816.258 1125.051 C 816.258 1125.051 815.258 1133.381 818.708 1136.391 C 818.708 1136.391 850.828 1142.871 869.118 1128.711 C 870.119 1123.85 869.498 1118.795 867.348 1114.321 C 863.748 1106.691 866.678 1113.841 866.678 1113.841 L 860.328 1100.241 Z " fill="rgb(77,138,240)"/><path d=" M 860.898 1100.151 L 818.018 1107.151 L 816.828 1124.961 C 816.828 1124.961 815.828 1133.291 819.278 1136.301 C 819.278 1136.301 851.398 1142.781 869.688 1128.621 C 870.689 1123.76 870.068 1118.705 867.918 1114.231 C 864.318 1106.601 867.248 1113.751 867.248 1113.751 L 860.898 1100.151 Z " fill="rgb(77,138,240)"/><path d=" M 860.578 1100.201 L 817.698 1107.201 L 816.508 1125.041 C 816.508 1125.041 815.508 1133.371 818.958 1136.381 C 818.958 1136.381 851.078 1142.861 869.368 1128.701 C 870.369 1123.84 869.748 1118.785 867.598 1114.311 C 863.998 1106.681 866.928 1113.831 866.928 1113.831 L 860.578 1100.201 Z " fill="rgb(77,138,240)"/><g opacity="0.1"><path d=" M 828.532 1090.834 L 845.683 1088.022 L 848.25 1103.683 C 848.539 1105.445 848.116 1107.249 847.075 1108.698 C 846.034 1110.148 844.459 1111.125 842.698 1111.413 L 838.819 1112.049 C 837.058 1112.338 835.254 1111.915 833.804 1110.874 C 832.355 1109.832 831.378 1108.258 831.089 1106.496 L 828.522 1090.836 L 828.532 1090.834 Z " fill="rgb(0,0,0)"/></g><path d=" M 828.43 1090.198 L 845.581 1087.387 L 848.148 1103.048 C 848.437 1104.809 848.014 1106.613 846.973 1108.063 C 845.931 1109.512 844.357 1110.489 842.595 1110.778 L 838.717 1111.414 C 836.956 1111.702 835.152 1111.28 833.702 1110.238 C 832.253 1109.197 831.276 1107.622 830.987 1105.861 L 828.42 1090.2 L 828.43 1090.198 Z " fill="rgb(253,165,125)"/><g opacity="0.1"><path d=" M 828.848 1092.671 C 834.714 1093.833 840.802 1092.854 846.008 1089.911 L 845.658 1087.801 L 828.508 1090.621 L 828.848 1092.671 Z " fill="rgb(0,0,0)"/></g><path d=" M 809.054 1071.848 C 806.829 1058.281 816.039 1045.46 829.606 1043.236 C 843.173 1041.012 855.993 1050.221 858.217 1063.788 C 860.441 1077.355 851.232 1090.176 837.665 1092.4 C 824.098 1094.624 811.278 1085.415 809.054 1071.848 Z " fill="rgb(253,165,125)"/><g opacity="0.1"><path d=" M 808.688 1062.971 L 855.578 1055.291 C 855.578 1055.291 848.468 1037.011 830.948 1041.131 C 813.428 1045.251 808.688 1062.971 808.688 1062.971 Z " fill="rgb(0,0,0)"/></g><path d=" M 808.578 1062.341 L 855.508 1054.651 C 855.508 1054.651 848.398 1036.371 830.878 1040.491 C 813.358 1044.611 808.578 1062.341 808.578 1062.341 Z " fill="rgb(51,51,51)"/><path d=" M 807.388 1072.545 C 807.004 1070.168 807.721 1068.072 808.989 1067.868 C 810.257 1067.663 811.598 1069.426 811.982 1071.803 C 812.366 1074.18 811.649 1076.276 810.381 1076.481 C 809.113 1076.685 807.772 1074.922 807.388 1072.545 Z " fill="rgb(253,165,125)"/><path d=" M 855.117 1063.212 C 854.729 1060.843 855.439 1058.751 856.703 1058.544 C 857.966 1058.337 859.308 1060.092 859.696 1062.461 C 860.084 1064.831 859.374 1066.922 858.11 1067.129 C 856.847 1067.337 855.506 1065.581 855.117 1063.212 Z " fill="rgb(253,165,125)"/><g style="opacity:0.5;"><g opacity="0.5"><linearGradient id="_lgradient_4" x1="0" y1="0.5" x2="6.123233995736766e-17" y2="-0.5" gradientTransform="matrix(396.16,0,0,547.37,985.908,1002.251)" gradientUnits="userSpaceOnUse"><stop offset="0%" stop-opacity="0.1" style="stop-color:rgb(128,128,128)"/></linearGradient><rect x="985.908" y="1002.251" width="396.16" height="547.37" transform="matrix(1,0,0,1,0,0)" fill="url(#_lgradient_4)"/></g></g><rect x="990.948" y="1006.281" width="386.08" height="535.27" transform="matrix(1,0,0,1,0,0)" fill="rgb(255,255,255)"/><g style="opacity:0.5;"><g opacity="0.5"><linearGradient id="_lgradient_5" x1="0" y1="0.5" x2="6.123233995736766e-17" y2="-0.5" gradientTransform="matrix(118.486,0,0,118.84,1042.508,1069.512)" gradientUnits="userSpaceOnUse"><stop offset="0%" stop-opacity="0.1" style="stop-color:rgb(128,128,128)"/></linearGradient><path d=" M 1042.508 1128.751 C 1042.511 1100.511 1062.448 1076.199 1090.141 1070.666 C 1117.834 1065.133 1145.582 1079.916 1156.437 1105.987 C 1167.292 1132.058 1158.235 1162.166 1134.798 1177.921 L 1134.798 1178.181 C 1132.863 1180.038 1130.579 1181.493 1128.078 1182.461 L 1127.998 1182.201 C 1125.228 1184.581 1113.548 1188.391 1100.128 1188.351 L 1099.838 1188.351 C 1091.338 1188.351 1082.118 1186.851 1073.998 1182.461 C 1073.998 1182.461 1073.928 1182.301 1073.818 1182.011 C 1071.761 1181.044 1069.873 1179.751 1068.228 1178.181 L 1068.138 1177.511 C 1052.09 1166.467 1042.505 1148.232 1042.508 1128.751 Z " fill="url(#_lgradient_5)"/></g></g><circle vector-effect="non-scaling-stroke" cx="1101.738297488676" cy="1128.7513433698614" r="57.460000000000036" fill="rgb(245,245,245)"/><path d=" M 1079.198 1150.641 C 1079.198 1150.641 1065.508 1151.751 1069.128 1176.751 C 1071.006 1178.552 1073.222 1179.963 1075.648 1180.901 L 1083.348 1154.831 L 1079.198 1150.641 Z " fill="rgb(190,124,94)"/><path d=" M 1123.628 1150.641 C 1123.628 1150.641 1137.318 1151.751 1133.698 1176.751 C 1131.821 1178.552 1129.605 1179.963 1127.178 1180.901 L 1119.508 1154.751 L 1123.628 1150.641 Z " fill="rgb(190,124,94)"/><path d=" M 1079.788 1109.751 C 1079.788 1109.751 1078.738 1112.821 1077.238 1116.371 C 1073.978 1124.131 1077.698 1153.951 1085.498 1157.131 C 1094.248 1160.701 1105.758 1162.981 1117.708 1158.621 C 1128.098 1154.831 1131.298 1120.891 1123.958 1112.621 C 1123.098 1111.621 1122.198 1110.691 1121.258 1109.751 L 1079.788 1109.751 Z " fill="rgb(51,51,51)"/><circle vector-effect="non-scaling-stroke" cx="1101.778297488676" cy="1107.9813433698614" r="25.470000000000027" fill="rgb(51,51,51)"/><g opacity="0.1"><path d=" M 1123.368 1150.641 L 1078.938 1150.641 L 1074.788 1168.411 C 1074.788 1168.411 1072.348 1176.641 1075.378 1180.261 C 1075.378 1180.261 1106.708 1192.111 1127.508 1180.851 C 1129.32 1176.112 1129.528 1170.91 1128.098 1166.041 C 1125.728 1157.751 1127.508 1165.451 1127.508 1165.451 L 1123.368 1150.641 Z " fill="rgb(0,0,0)"/></g><g opacity="0.1"><path d=" M 1123.958 1150.641 L 1079.508 1150.641 L 1075.358 1168.411 C 1075.358 1168.411 1072.918 1176.641 1075.948 1180.261 C 1075.948 1180.261 1107.278 1192.111 1128.078 1180.851 C 1129.89 1176.112 1130.098 1170.91 1128.668 1166.041 C 1126.298 1157.751 1128.078 1165.451 1128.078 1165.451 L 1123.958 1150.641 Z " fill="rgb(0,0,0)"/></g><path d=" M 1123.628 1150.641 L 1079.198 1150.641 L 1075.048 1168.411 C 1075.048 1168.411 1072.608 1176.641 1075.638 1180.261 C 1075.638 1180.261 1106.968 1192.111 1127.768 1180.851 C 1129.58 1176.112 1129.788 1170.91 1128.358 1166.041 C 1125.988 1157.751 1127.768 1165.451 1127.768 1165.451 L 1123.628 1150.641 Z " fill="rgb(58,210,159)"/><g opacity="0.1"><path d=" M 1092.828 1135.891 L 1110.598 1135.891 L 1110.598 1152.271 C 1110.598 1154.056 1109.889 1155.768 1108.627 1157.03 C 1107.365 1158.292 1105.653 1159.001 1103.868 1159.001 L 1099.548 1159.001 C 1097.763 1159.001 1096.052 1158.292 1094.789 1157.03 C 1093.527 1155.768 1092.818 1154.056 1092.818 1152.271 L 1092.818 1135.891 L 1092.828 1135.891 Z " fill="rgb(0,0,0)"/></g><path d=" M 1092.828 1135.231 L 1110.598 1135.231 L 1110.598 1151.611 C 1110.598 1153.396 1109.889 1155.108 1108.627 1156.37 C 1107.365 1157.632 1105.653 1158.341 1103.868 1158.341 L 1099.548 1158.341 C 1097.763 1158.341 1096.052 1157.632 1094.789 1156.37 C 1093.527 1155.108 1092.818 1153.396 1092.818 1151.611 L 1092.818 1135.231 L 1092.828 1135.231 Z " fill="rgb(190,124,94)"/><g opacity="0.1"><path d=" M 1092.858 1137.751 C 1098.591 1139.875 1104.895 1139.875 1110.628 1137.751 L 1110.628 1135.571 L 1092.858 1135.571 L 1092.858 1137.751 Z " fill="rgb(0,0,0)"/></g><circle vector-effect="non-scaling-stroke" cx="1101.778297488676" cy="1113.5113433698616" r="25.470000000000027" fill="rgb(190,124,94)"/><path d=" M 1077.418 1103.841 L 1125.998 1103.841 C 1125.998 1103.841 1121.848 1084.221 1103.488 1085.481 C 1085.128 1086.741 1077.418 1103.841 1077.418 1103.841 Z " fill="rgb(51,51,51)"/><ellipse vector-effect="non-scaling-stroke" cx="1076.838297488676" cy="1112.4313433698615" rx="2.369999999999891" ry="4.440000000000055" fill="rgb(190,124,94)"/><ellipse vector-effect="non-scaling-stroke" cx="1126.598297488676" cy="1112.4313433698615" rx="2.369999999999891" ry="4.440000000000055" fill="rgb(190,124,94)"/><g opacity="0.1"><path d=" M 1077.418 1104.491 L 1125.998 1104.491 C 1125.998 1104.491 1121.848 1084.871 1103.488 1086.131 C 1085.128 1087.391 1077.418 1104.491 1077.418 1104.491 Z " fill="rgb(0,0,0)"/></g><rect x="1042.428" y="1238.381" width="278.65" height="16.89" transform="matrix(1,0,0,1,0,0)" fill="rgb(224,224,224)"/><rect x="1042.428" y="1280.601" width="278.65" height="16.89" transform="matrix(1,0,0,1,0,0)" fill="rgb(224,224,224)"/><rect x="1177.538" y="1103.281" width="143.55" height="16.89" transform="matrix(1,0,0,1,0,0)" fill="rgb(224,224,224)"/><rect x="1190.198" y="1145.501" width="118.22" height="16.89" transform="matrix(1,0,0,1,0,0)" fill="rgb(255,217,0)"/><rect x="1042.428" y="1322.821" width="244.88" height="16.89" transform="matrix(1,0,0,1,0,0)" fill="rgb(224,224,224)"/><rect x="1042.428" y="1365.041" width="211.1" height="16.89" transform="matrix(1,0,0,1,0,0)" fill="rgb(224,224,224)"/><rect x="1042.428" y="1407.271" width="185.77" height="16.89" transform="matrix(1,0,0,1,0,0)" fill="rgb(224,224,224)"/><rect x="1042.428" y="1449.491" width="236.43" height="16.89" transform="matrix(1,0,0,1,0,0)" fill="rgb(224,224,224)"/><rect x="1042.428" y="1491.711" width="92.88" height="16.89" transform="matrix(1,0,0,1,0,0)" fill="rgb(255,217,0)"/><g style="opacity:0.5;"><g opacity="0.5"><linearGradient id="_lgradient_6" x1="0" y1="0.5" x2="6.123233995736766e-17" y2="-0.5" gradientTransform="matrix(168.78,0,0,168.78,1270.958,1415.951)" gradientUnits="userSpaceOnUse"><stop offset="0%" stop-opacity="0.1" style="stop-color:rgb(128,128,128)"/></linearGradient><circle vector-effect="non-scaling-stroke" cx="1355.348297488676" cy="1500.3413433698615" r="84.3900000000001" fill="url(#_lgradient_6)"/></g></g><circle vector-effect="non-scaling-stroke" cx="1355.348297488676" cy="1500.3413433698615" r="79.42000000000007" fill="rgb(0,255,60)"/><path d=" M 1320.878 1489.741 L 1350.658 1517.041 L 1392.848 1455.001 L 1407.748 1467.411 L 1350.658 1541.861 L 1308.468 1494.711 L 1320.878 1489.741 L 1320.878 1489.741 Z " fill="rgb(255,255,255)"/></g></svg>