<?xml version="1.0" encoding="UTF-8" standalone="no"?>
<!-- Generator: Gravit.io -->
<svg xmlns="http://www.w3.org/2000/svg" xmlns:xlink="http://www.w3.org/1999/xlink" style="isolation:isolate" viewBox="748 342 647.635 632.166" width="647.635pt" height="632.166pt"><defs><clipPath id="_clipPath_S7qwYkGQKAcVyzBjnZQme66F0YN3OyGR"><rect x="748" y="342" width="647.635" height="632.166"/></clipPath></defs><g clip-path="url(#_clipPath_S7qwYkGQKAcVyzBjnZQme66F0YN3OyGR)"><g><path d=" M 1159.145 484.166 L 984.635 484.166 C 976.355 484.176 969.645 490.886 969.635 499.166 L 969.635 887.016 L 967.635 887.626 L 924.825 900.736 C 920.6 902.024 916.131 899.648 914.835 895.426 L 787.495 479.476 C 786.204 475.251 788.581 470.78 792.805 469.486 L 858.775 449.286 L 1050.025 390.746 L 1115.995 370.546 C 1118.022 369.922 1120.215 370.13 1122.089 371.124 C 1123.963 372.118 1125.365 373.817 1125.985 375.846 L 1158.535 482.166 L 1159.145 484.166 Z " fill="rgb(87,87,87)"/><path d=" M 1197.225 482.166 L 1157.995 354.026 C 1156.677 349.714 1153.699 346.102 1149.717 343.987 C 1145.735 341.871 1141.076 341.425 1136.765 342.746 L 1044.015 371.136 L 852.775 429.686 L 760.025 458.086 C 751.054 460.841 746.007 470.339 748.745 479.316 L 882.825 917.246 C 885.018 924.389 891.612 929.268 899.085 929.276 C 900.77 929.277 902.445 929.024 904.055 928.526 L 967.635 909.066 L 969.635 908.446 L 969.635 906.356 L 967.635 906.966 L 903.465 926.616 C 895.546 929.03 887.168 924.579 884.735 916.666 L 750.665 478.726 C 749.496 474.923 749.888 470.81 751.755 467.297 C 753.621 463.783 756.809 461.156 760.615 459.996 L 853.365 431.596 L 1044.605 373.056 L 1137.355 344.656 C 1138.784 344.22 1140.27 343.997 1141.765 343.996 C 1148.348 344.011 1154.154 348.312 1156.085 354.606 L 1195.135 482.166 L 1195.755 484.166 L 1197.835 484.166 L 1197.225 482.166 Z " fill="rgb(151,151,151)"/><path d=" M 870.68 469.813 C 866.723 469.81 863.231 467.228 862.068 463.446 L 849.188 421.374 C 848.489 419.092 848.725 416.625 849.845 414.517 C 850.965 412.409 852.877 410.832 855.159 410.134 L 1031.098 356.27 C 1035.85 354.82 1040.88 357.491 1042.339 362.241 L 1055.219 404.313 C 1056.668 409.065 1053.997 414.094 1049.248 415.554 L 873.309 469.418 C 872.457 469.679 871.571 469.812 870.68 469.813 Z " fill="rgb(151,151,151)"/><path d=" M 918.152 366.947 C 918.152 355.908 927.114 346.947 938.152 346.947 C 949.19 346.947 958.152 355.908 958.152 366.947 C 958.152 377.985 949.19 386.947 938.152 386.947 C 927.114 386.947 918.152 377.985 918.152 366.947 Z  M 925.488 366.947 C 925.488 359.957 931.162 354.282 938.152 354.282 C 945.142 354.282 950.817 359.957 950.817 366.947 C 950.817 373.936 945.142 379.611 938.152 379.611 C 931.162 379.611 925.488 373.936 925.488 366.947 Z " fill-rule="evenodd" fill="rgb(151,151,151)"/><path d=" M 1350.635 924.166 L 1012.635 924.166 C 1007.943 924.16 1004.141 920.358 1004.135 915.666 L 1004.135 510.666 C 1004.14 505.973 1007.943 502.171 1012.635 502.166 L 1350.635 502.166 C 1355.327 502.171 1359.13 505.974 1359.135 510.666 L 1359.135 915.666 C 1359.13 920.358 1355.327 924.16 1350.635 924.166 Z " fill="rgb(176,176,176)"/><path d=" M 1195.135 482 L 984.635 482 C 975.252 482.013 967.648 489.619 967.635 499.006 L 967.635 906.943 L 969.635 906.333 L 969.635 499.006 C 969.645 490.723 976.355 484.011 984.635 484.001 L 1195.755 484.001 L 1195.135 482 Z  M 1378.635 482 L 984.635 482 C 975.252 482.013 967.648 489.619 967.635 499.006 L 967.635 957.16 C 967.648 966.546 975.252 974.152 984.635 974.166 L 1378.635 974.166 C 1388.018 974.152 1395.622 966.546 1395.635 957.16 L 1395.635 499.006 C 1395.622 489.619 1388.018 482.013 1378.635 482 L 1378.635 482 Z  M 1393.635 957.16 C 1393.625 965.443 1386.915 972.155 1378.635 972.165 L 984.635 972.165 C 976.355 972.155 969.645 965.443 969.635 957.16 L 969.635 499.006 C 969.645 490.723 976.355 484.011 984.635 484.001 L 1378.635 484.001 C 1386.915 484.011 1393.625 490.723 1393.635 499.006 L 1393.635 957.16 Z " fill="rgb(255,255,255)"/><path d=" M 1273.635 526.166 L 1089.635 526.166 C 1084.667 526.16 1080.641 522.134 1080.635 517.166 L 1080.635 473.166 C 1080.641 468.197 1084.667 464.171 1089.635 464.166 L 1273.635 464.166 C 1278.603 464.171 1282.63 468.197 1282.635 473.166 L 1282.635 517.166 C 1282.63 522.134 1278.603 526.16 1273.635 526.166 L 1273.635 526.166 Z " fill="rgb(255,255,255)"/><path d=" M 1161.635 447.166 C 1161.635 436.127 1170.597 427.166 1181.635 427.166 C 1192.673 427.166 1201.635 436.127 1201.635 447.166 C 1201.635 458.204 1192.673 467.166 1181.635 467.166 C 1170.597 467.166 1161.635 458.204 1161.635 447.166 Z  M 1169.453 447.166 C 1169.453 440.442 1174.912 434.984 1181.635 434.984 C 1188.358 434.984 1193.817 440.442 1193.817 447.166 C 1193.817 453.889 1188.358 459.348 1181.635 459.348 C 1174.912 459.348 1169.453 453.889 1169.453 447.166 Z " fill-rule="evenodd" fill="rgb(255,255,255)"/></g></g></svg>