<?xml version="1.0" encoding="UTF-8" standalone="no"?>
<!-- Generator: Gravit.io -->
<svg xmlns="http://www.w3.org/2000/svg" xmlns:xlink="http://www.w3.org/1999/xlink" style="isolation:isolate" viewBox="1317.895 1633.684 821.68 579.012" width="821.68pt" height="579.012pt"><g><path d=" M 1499.974 1691.687 L 1447.574 1691.687 C 1437.085 1691.696 1428.584 1700.197 1428.574 1710.687 L 1428.574 1767.497 C 1427.904 1767.457 1427.235 1767.397 1426.574 1767.317 C 1392.093 1763.689 1366.076 1734.354 1366.593 1699.686 C 1367.11 1665.019 1393.991 1636.473 1428.564 1633.875 C 1463.138 1631.277 1493.983 1655.486 1499.675 1689.687 C 1499.784 1690.347 1499.885 1691.017 1499.974 1691.687 Z " fill="rgb(242,242,242)"/><path d=" M 2118.574 1689.687 L 1447.574 1689.687 C 1435.982 1689.699 1426.587 1699.094 1426.574 1710.687 L 1426.574 2064.687 C 1426.587 2076.279 1435.982 2085.674 1447.574 2085.687 L 2118.574 2085.687 C 2130.167 2085.674 2139.562 2076.279 2139.574 2064.687 L 2139.574 1710.687 C 2139.562 1699.094 2130.167 1689.699 2118.574 1689.687 L 2118.574 1689.687 Z  M 2137.574 2064.687 C 2137.565 2075.176 2129.064 2083.677 2118.574 2083.687 L 1447.574 2083.687 C 1437.085 2083.677 1428.584 2075.176 1428.574 2064.687 L 1428.574 1710.687 C 1428.584 1700.197 1437.085 1691.696 1447.574 1691.687 L 2118.574 1691.687 C 2129.064 1691.696 2137.565 1700.197 2137.574 1710.687 L 2137.574 2064.687 Z " fill="rgb(63,61,86)"/><path d=" M 2085.574 1747.056 L 1480.574 1747.056 C 1480.022 1747.056 1479.574 1746.609 1479.574 1746.056 C 1479.574 1745.504 1480.022 1745.056 1480.574 1745.056 L 2085.574 1745.056 C 2086.127 1745.056 2086.574 1745.504 2086.574 1746.056 C 2086.574 1746.609 2086.127 1747.056 2085.574 1747.056 Z " fill="rgb(63,61,86)"/><path d=" M 1651.574 2042.687 C 1651.022 2042.687 1650.574 2042.239 1650.574 2041.687 L 1650.574 1712.687 C 1650.574 1712.134 1651.022 1711.687 1651.574 1711.687 C 1652.127 1711.687 1652.574 1712.134 1652.574 1712.687 L 1652.574 2041.687 C 1652.574 2042.239 1652.127 2042.687 1651.574 2042.687 L 1651.574 2042.687 Z " fill="rgb(63,61,86)"/><path d=" M 1802.574 2042.687 C 1802.022 2042.687 1801.574 2042.239 1801.574 2041.687 L 1801.574 1712.687 C 1801.574 1712.134 1802.022 1711.687 1802.574 1711.687 C 1803.127 1711.687 1803.574 1712.134 1803.574 1712.687 L 1803.574 2041.687 C 1803.574 2042.239 1803.127 2042.687 1802.574 2042.687 L 1802.574 2042.687 Z " fill="rgb(63,61,86)"/><path d=" M 1953.574 2042.687 C 1953.022 2042.687 1952.574 2042.239 1952.574 2041.687 L 1952.574 1712.687 C 1952.574 1712.134 1953.022 1711.687 1953.574 1711.687 C 1954.127 1711.687 1954.574 1712.134 1954.574 1712.687 L 1954.574 2041.687 C 1954.574 2042.239 1954.127 2042.687 1953.574 2042.687 L 1953.574 2042.687 Z " fill="rgb(63,61,86)"/><path d=" M 1554.49 1850.274 L 1517.95 1850.274 C 1515.466 1850.271 1513.453 1848.258 1513.45 1845.774 L 1513.45 1802.654 C 1513.453 1800.17 1515.466 1798.157 1517.95 1798.154 L 1554.49 1798.154 C 1556.974 1798.157 1558.987 1800.17 1558.99 1802.654 L 1558.99 1845.774 C 1558.987 1848.258 1556.974 1850.271 1554.49 1850.274 L 1554.49 1850.274 Z " fill="rgb(255,217,0)"/><path d=" M 1606.49 1973.274 L 1569.95 1973.274 C 1567.466 1973.271 1565.453 1971.258 1565.45 1968.774 L 1565.45 1925.654 C 1565.453 1923.17 1567.466 1921.157 1569.95 1921.154 L 1606.49 1921.154 C 1608.974 1921.157 1610.987 1923.17 1610.99 1925.654 L 1610.99 1968.774 C 1610.987 1971.258 1608.974 1973.271 1606.49 1973.274 L 1606.49 1973.274 Z " fill="rgb(255,217,0)"/><path d=" M 1724.49 1876.274 L 1687.95 1876.274 C 1685.466 1876.271 1683.453 1874.258 1683.45 1871.774 L 1683.45 1828.654 C 1683.453 1826.17 1685.466 1824.157 1687.95 1824.154 L 1724.49 1824.154 C 1726.974 1824.157 1728.987 1826.17 1728.99 1828.654 L 1728.99 1871.774 C 1728.987 1874.258 1726.974 1876.271 1724.49 1876.274 L 1724.49 1876.274 Z " fill="rgb(255,217,0)"/><path d=" M 1877.49 1829.274 L 1840.95 1829.274 C 1838.466 1829.271 1836.453 1827.258 1836.45 1824.774 L 1836.45 1781.654 C 1836.453 1779.17 1838.466 1777.157 1840.95 1777.154 L 1877.49 1777.154 C 1879.974 1777.157 1881.987 1779.17 1881.99 1781.654 L 1881.99 1824.774 C 1881.987 1827.258 1879.974 1829.271 1877.49 1829.274 L 1877.49 1829.274 Z " fill="rgb(255,217,0)"/><path d=" M 2018.49 1829.274 L 1981.95 1829.274 C 1979.466 1829.271 1977.453 1827.258 1977.45 1824.774 L 1977.45 1781.654 C 1977.453 1779.17 1979.466 1777.157 1981.95 1777.154 L 2018.49 1777.154 C 2020.974 1777.157 2022.987 1779.17 2022.99 1781.654 L 2022.99 1824.774 C 2022.987 1827.258 2020.974 1829.271 2018.49 1829.274 L 2018.49 1829.274 Z " fill="rgb(255,217,0)"/><path d=" M 2083.49 1841.274 L 2046.95 1841.274 C 2044.466 1841.271 2042.453 1839.258 2042.45 1836.774 L 2042.45 1793.654 C 2042.453 1791.17 2044.466 1789.157 2046.95 1789.154 L 2083.49 1789.154 C 2085.974 1789.157 2087.987 1791.17 2087.99 1793.654 L 2087.99 1836.774 C 2087.987 1839.258 2085.974 1841.271 2083.49 1841.274 L 2083.49 1841.274 Z " fill="rgb(230,230,230)"/><path d=" M 2054.49 1918.274 L 2017.95 1918.274 C 2015.466 1918.271 2013.453 1916.258 2013.45 1913.774 L 2013.45 1870.654 C 2013.453 1868.17 2015.466 1866.157 2017.95 1866.154 L 2054.49 1866.154 C 2056.974 1866.157 2058.987 1868.17 2058.99 1870.654 L 2058.99 1913.774 C 2058.987 1916.258 2056.974 1918.271 2054.49 1918.274 L 2054.49 1918.274 Z " fill="rgb(230,230,230)"/><path d=" M 1930.49 1902.274 L 1893.95 1902.274 C 1891.466 1902.271 1889.453 1900.258 1889.45 1897.774 L 1889.45 1854.654 C 1889.453 1852.17 1891.466 1850.157 1893.95 1850.154 L 1930.49 1850.154 C 1932.974 1850.157 1934.987 1852.17 1934.99 1854.654 L 1934.99 1897.774 C 1934.987 1900.258 1932.974 1902.271 1930.49 1902.274 L 1930.49 1902.274 Z " fill="rgb(255,101,132)"/><path d=" M 1859.49 1918.274 L 1822.95 1918.274 C 1820.466 1918.271 1818.453 1916.258 1818.45 1913.774 L 1818.45 1870.654 C 1818.453 1868.17 1820.466 1866.157 1822.95 1866.154 L 1859.49 1866.154 C 1861.974 1866.157 1863.987 1868.17 1863.99 1870.654 L 1863.99 1913.774 C 1863.987 1916.258 1861.974 1918.271 1859.49 1918.274 L 1859.49 1918.274 Z " fill="rgb(230,230,230)"/><path d=" M 1706.49 1986.274 L 1669.95 1986.274 C 1667.466 1986.271 1665.453 1984.258 1665.45 1981.774 L 1665.45 1938.654 C 1665.453 1936.17 1667.466 1934.157 1669.95 1934.154 L 1706.49 1934.154 C 1708.974 1934.157 1710.987 1936.17 1710.99 1938.654 L 1710.99 1981.774 C 1710.987 1984.258 1708.974 1986.271 1706.49 1986.274 Z " fill="rgb(230,230,230)"/><path d=" M 1521.49 1929.274 L 1484.95 1929.274 C 1482.466 1929.271 1480.453 1927.258 1480.45 1924.774 L 1480.45 1881.654 C 1480.453 1879.17 1482.466 1877.157 1484.95 1877.154 L 1521.49 1877.154 C 1523.974 1877.157 1525.987 1879.17 1525.99 1881.654 L 1525.99 1924.774 C 1525.987 1927.258 1523.974 1929.271 1521.49 1929.274 L 1521.49 1929.274 Z " fill="rgb(255,101,132)"/><path d=" M 1624.49 1850.274 L 1587.95 1850.274 C 1585.466 1850.271 1583.453 1848.258 1583.45 1845.774 L 1583.45 1802.654 C 1583.453 1800.17 1585.466 1798.157 1587.95 1798.154 L 1624.49 1798.154 C 1626.974 1798.157 1628.987 1800.17 1628.99 1802.654 L 1628.99 1845.774 C 1628.987 1848.258 1626.974 1850.271 1624.49 1850.274 L 1624.49 1850.274 Z " fill="rgb(230,230,230)"/><path d=" M 1594.574 1730.687 L 1537.574 1730.687 C 1535.365 1730.687 1533.574 1728.896 1533.574 1726.687 C 1533.574 1724.478 1535.365 1722.687 1537.574 1722.687 L 1594.574 1722.687 C 1596.784 1722.687 1598.574 1724.478 1598.574 1726.687 C 1598.574 1728.896 1596.784 1730.687 1594.574 1730.687 Z " fill="rgb(204,204,204)"/><path d=" M 1755.574 1730.687 L 1698.574 1730.687 C 1696.365 1730.687 1694.574 1728.896 1694.574 1726.687 C 1694.574 1724.478 1696.365 1722.687 1698.574 1722.687 L 1755.574 1722.687 C 1757.784 1722.687 1759.574 1724.478 1759.574 1726.687 C 1759.574 1728.896 1757.784 1730.687 1755.574 1730.687 Z " fill="rgb(204,204,204)"/><path d=" M 1906.574 1730.687 L 1849.574 1730.687 C 1847.365 1730.687 1845.574 1728.896 1845.574 1726.687 C 1845.574 1724.478 1847.365 1722.687 1849.574 1722.687 L 1906.574 1722.687 C 1908.784 1722.687 1910.574 1724.478 1910.574 1726.687 C 1910.574 1728.896 1908.784 1730.687 1906.574 1730.687 Z " fill="rgb(204,204,204)"/><path d=" M 2047.574 1730.687 L 1990.574 1730.687 C 1988.365 1730.687 1986.574 1728.896 1986.574 1726.687 C 1986.574 1724.478 1988.365 1722.687 1990.574 1722.687 L 2047.574 1722.687 C 2049.784 1722.687 2051.574 1724.478 2051.574 1726.687 C 2051.574 1728.896 2049.784 1730.687 2047.574 1730.687 Z " fill="rgb(204,204,204)"/><path d=" M 1466.907 2023.578 C 1463.946 2023.288 1461.264 2021.701 1459.585 2019.244 C 1457.906 2016.787 1457.402 2013.712 1458.207 2010.848 L 1432.574 1986.986 L 1446.127 1983.548 L 1471.333 2003.992 C 1476.162 2005.702 1478.949 2010.754 1477.82 2015.751 C 1476.691 2020.748 1472.003 2024.11 1466.907 2023.578 L 1466.907 2023.578 Z " fill="rgb(255,184,184)"/><path d=" M 1502.302 2199.94 L 1514.562 2199.94 L 1520.394 2152.652 L 1502.3 2152.652 L 1502.302 2199.94 L 1502.302 2199.94 Z " fill="rgb(255,184,184)"/><path d=" M 1538.206 2211.322 L 1499.676 2211.324 L 1499.675 2196.437 L 1523.319 2196.436 C 1531.54 2196.436 1538.206 2203.1 1538.206 2211.322 L 1538.206 2211.322 L 1538.206 2211.322 Z " fill="rgb(20,20,20)"/><path d=" M 1418.243 2191.088 L 1430.091 2194.242 L 1447.892 2150.046 L 1430.407 2145.392 L 1418.243 2191.088 L 1418.243 2191.088 Z " fill="rgb(255,184,184)"/><path d=" M 1450.011 2211.326 L 1412.777 2201.415 L 1416.606 2187.029 L 1439.454 2193.111 C 1447.4 2195.226 1452.126 2203.381 1450.011 2211.326 L 1450.011 2211.326 L 1450.011 2211.326 Z " fill="rgb(20,20,20)"/><path d=" M 1517.859 2190.986 L 1499.152 2190.986 C 1496.703 2190.995 1494.652 2189.132 1494.426 2186.693 L 1483.069 2068.762 C 1482.898 2066.978 1481.487 2065.565 1479.703 2065.391 C 1477.919 2065.217 1476.262 2066.33 1475.748 2068.047 L 1442.775 2178.246 C 1442.05 2180.68 1439.538 2182.111 1437.075 2181.492 L 1419.672 2177.141 C 1418.445 2176.834 1417.391 2176.051 1416.744 2174.964 C 1416.097 2173.878 1415.91 2172.578 1416.225 2171.354 C 1416.509 2170.243 1444.635 2060.325 1444.881 2059.195 C 1451.254 2012.228 1458.878 1999.642 1462.974 1992.881 C 1463.313 1992.321 1463.624 1991.807 1463.905 1991.32 C 1464.256 1990.712 1466.417 1984.676 1467.788 1980.756 C 1468.149 1979.467 1469.032 1978.387 1470.224 1977.778 C 1487.434 1968.977 1507.571 1975.069 1513.333 1977.147 C 1514.288 1977.483 1515.108 1978.12 1515.671 1978.962 C 1532.955 2005.033 1524.473 2156.453 1522.597 2186.543 C 1522.435 2189.041 1520.362 2190.985 1517.859 2190.986 Z " fill="rgb(20,20,20)"/><circle vector-effect="non-scaling-stroke" cx="1469.582327476114" cy="1867.7108882413775" r="24.561030000000073" fill="rgb(255,184,184)"/><path d=" M 1466.98 1985.525 L 1466.803 1985.354 C 1466.472 1985.033 1433.748 1952.974 1437.983 1923.329 C 1439.794 1910.65 1450.053 1902.548 1467.651 1899.899 C 1481.017 1897.914 1493.806 1906.065 1497.65 1919.02 L 1515.05 1978.504 L 1466.98 1985.525 Z " fill="rgb(204,204,204)"/><path d=" M 1450.231 2008.327 L 1426.913 1985.156 C 1423.67 1981.916 1422.351 1977.22 1423.433 1972.765 L 1434.721 1926.846 C 1435.405 1924.065 1437.21 1921.691 1439.707 1920.288 C 1442.204 1918.886 1445.171 1918.581 1447.901 1919.445 C 1453.254 1921.171 1456.269 1926.836 1454.71 1932.239 L 1442.826 1972.636 L 1462.044 1993.273 L 1450.231 2008.327 Z " fill="rgb(204,204,204)"/><path d=" M 1575.303 1929.249 C 1574.054 1931.951 1571.674 1933.961 1568.801 1934.738 C 1565.929 1935.516 1562.859 1934.981 1560.419 1933.278 L 1529.289 1949.412 L 1530.665 1935.706 L 1558.262 1918.628 C 1561.465 1914.63 1567.153 1913.66 1571.5 1916.37 C 1575.848 1919.079 1577.481 1924.613 1575.303 1929.249 L 1575.303 1929.249 Z " fill="rgb(255,184,184)"/><path d=" M 1557.019 1939.451 L 1526.673 1952.565 C 1522.565 1954.326 1517.837 1953.819 1514.196 1951.226 L 1475.607 1923.577 C 1473.279 1921.909 1471.746 1919.352 1471.372 1916.512 C 1470.998 1913.673 1471.817 1910.805 1473.634 1908.591 C 1477.224 1904.262 1483.604 1903.568 1488.042 1907.023 L 1521.131 1933.065 L 1547.431 1922.89 L 1557.019 1939.451 Z " fill="rgb(204,204,204)"/><path d=" M 1473.654 1875.581 C 1476.684 1871.785 1482.345 1871.581 1486.507 1869.076 C 1491.959 1865.796 1494.213 1858.466 1492.456 1852.35 C 1490.699 1846.235 1485.518 1841.469 1479.577 1839.19 C 1473.637 1836.911 1467.028 1836.883 1460.762 1837.984 C 1451.431 1839.625 1442.245 1843.98 1436.555 1851.553 C 1430.865 1859.127 1429.416 1870.219 1434.573 1878.166 C 1436.944 1881.818 1440.603 1884.833 1441.549 1889.083 C 1442.791 1894.662 1438.878 1900.044 1434.685 1903.929 C 1429.908 1908.355 1424.428 1912.062 1420.243 1917.052 C 1416.058 1922.041 1413.267 1928.858 1415.177 1935.084 C 1416.777 1940.3 1421.433 1944.144 1426.538 1946.068 C 1431.644 1947.993 1437.204 1948.271 1442.66 1948.377 C 1447.957 1948.481 1453.583 1948.352 1458.046 1945.496 C 1462.823 1942.438 1465.373 1936.638 1465.562 1930.969 C 1465.75 1925.3 1463.856 1919.747 1461.317 1914.675 C 1459.804 1911.651 1458.044 1908.722 1457.039 1905.494 C 1456.033 1902.267 1455.859 1898.604 1457.47 1895.632 C 1459.162 1892.507 1462.587 1890.623 1466.074 1889.937 C 1466.255 1889.902 1466.447 1889.87 1466.647 1889.842 C 1468.652 1889.582 1470.463 1888.512 1471.659 1886.883 C 1472.856 1885.253 1473.333 1883.205 1472.98 1881.214 C 1472.583 1879 1472.617 1876.88 1473.654 1875.581 Z " fill="rgb(20,20,20)"/><path d=" M 1801.127 2200.987 L 1788.867 2200.987 L 1783.035 2153.699 L 1801.129 2153.7 L 1801.127 2200.987 L 1801.127 2200.987 Z " fill="rgb(160,97,106)"/><path d=" M 1780.11 2197.483 L 1803.754 2197.483 L 1803.754 2212.37 L 1765.223 2212.37 L 1765.223 2212.37 C 1765.223 2208.422 1766.792 2204.636 1769.584 2201.844 C 1772.375 2199.052 1776.162 2197.483 1780.11 2197.483 L 1780.11 2197.483 Z " fill="rgb(20,20,20)"/><path d=" M 1890.082 2187.1 L 1878.931 2192.193 L 1853.977 2151.604 L 1870.436 2144.086 L 1890.082 2187.1 L 1890.082 2187.1 Z " fill="rgb(160,97,106)"/><path d=" M 1869.51 2192.645 L 1891.017 2182.822 L 1897.202 2196.363 L 1862.154 2212.371 L 1862.154 2212.371 C 1860.513 2208.78 1860.367 2204.684 1861.746 2200.985 C 1863.126 2197.285 1865.919 2194.285 1869.51 2192.645 L 1869.51 2192.645 Z " fill="rgb(20,20,20)"/><path d=" M 1854.38 2041.544 C 1856.758 2039.754 1858.221 2037.003 1858.375 2034.031 C 1858.53 2031.059 1857.36 2028.172 1855.181 2026.145 L 1869.592 1993.445 L 1851.284 1996.548 L 1840.405 2027.125 C 1837.172 2031.099 1837.423 2036.863 1840.988 2040.541 C 1844.553 2044.22 1850.307 2044.65 1854.38 2041.544 Z " fill="rgb(160,97,106)"/><path d=" M 1800.346 2188.518 L 1788.634 2188.518 C 1786.278 2188.51 1784.324 2186.693 1784.146 2184.344 L 1777.759 2013.786 C 1777.662 2012.463 1778.155 2011.165 1779.104 2010.238 C 1780.054 2009.312 1781.364 2008.852 1782.684 2008.981 L 1850.419 2016.174 C 1852.691 2016.397 1854.437 2018.285 1854.481 2020.568 L 1855.9 2095.803 C 1855.908 2096.212 1855.987 2096.615 1856.134 2096.997 L 1883.919 2169.049 C 1884.353 2170.174 1884.318 2171.425 1883.821 2172.523 C 1883.324 2173.621 1882.407 2174.474 1881.276 2174.89 L 1869.408 2179.263 C 1867.275 2180.049 1864.891 2179.12 1863.851 2177.099 L 1829.718 2110.73 C 1829.532 2110.369 1829.396 2109.985 1829.314 2109.587 L 1823.483 2081.494 C 1823.134 2079.811 1821.614 2078.631 1819.898 2078.709 C 1818.181 2078.786 1816.775 2080.099 1816.579 2081.806 L 1804.817 2184.53 C 1804.557 2186.802 1802.633 2188.519 1800.346 2188.518 Z " fill="rgb(20,20,20)"/><circle vector-effect="non-scaling-stroke" cx="1806.177607476114" cy="1855.8644782413776" r="24.561030000000073" fill="rgb(160,97,106)"/><path d=" M 1823.021 2029.381 C 1806.365 2029.197 1790.107 2024.272 1776.148 2015.183 L 1775.909 2015.018 L 1775.934 2014.728 L 1785.329 1905.312 C 1785.999 1897.636 1792.232 1891.632 1799.928 1891.251 C 1812.104 1890.691 1828.459 1891.397 1837.214 1897.917 C 1850.445 1907.772 1856.822 1922.611 1854.709 1938.63 C 1850.329 1971.848 1855.291 2016.659 1855.871 2021.659 L 1855.913 2022.019 L 1855.584 2022.171 C 1845.384 2026.916 1834.271 2029.377 1823.021 2029.381 L 1823.021 2029.381 Z " fill="rgb(255,217,0)"/><path d=" M 1855.758 2021.844 C 1854.358 2021.842 1853.024 2021.254 1852.077 2020.222 L 1846.705 2014.361 C 1845.524 2013.065 1845.104 2011.248 1845.596 2009.566 L 1857.846 1968.102 L 1839.207 1928.959 C 1838.336 1927.126 1838.123 1925.05 1838.603 1923.079 C 1839.469 1919.538 1842.427 1916.895 1846.043 1916.433 C 1849.66 1915.971 1853.188 1917.785 1854.916 1920.995 L 1880.211 1962.037 C 1882.297 1965.418 1882.567 1969.615 1880.931 1973.235 L 1860.321 2018.9 C 1859.631 2020.434 1858.215 2021.517 1856.554 2021.78 C 1856.291 2021.823 1856.025 2021.844 1855.758 2021.844 L 1855.758 2021.844 Z " fill="rgb(255,217,0)"/><path d=" M 1682.636 1942.639 C 1685.024 1944.415 1688.076 1945.042 1690.97 1944.352 C 1693.865 1943.661 1696.305 1941.724 1697.635 1939.062 L 1733.073 1943.658 L 1724.928 1926.969 L 1692.524 1925.163 C 1687.799 1923.184 1682.341 1925.051 1679.818 1929.509 C 1677.295 1933.968 1678.506 1939.609 1682.636 1942.639 L 1682.636 1942.639 Z " fill="rgb(160,97,106)"/><path d=" M 1760.748 1951.754 C 1760.13 1951.754 1759.514 1951.711 1758.903 1951.626 L 1703.152 1943.894 C 1701.301 1943.639 1699.703 1942.47 1698.901 1940.782 C 1698.774 1940.515 1698.667 1940.238 1698.583 1939.953 L 1698.583 1939.953 C 1698.147 1938.461 1698.355 1936.854 1699.158 1935.522 L 1703.772 1927.873 C 1704.781 1926.21 1706.583 1925.193 1708.527 1925.187 L 1708.535 1925.187 L 1757.131 1925.242 L 1793.425 1892.725 C 1795.113 1891.216 1797.27 1890.333 1799.532 1890.226 C 1803.598 1890.037 1807.36 1892.373 1808.994 1896.101 C 1810.629 1899.829 1809.798 1904.178 1806.905 1907.041 L 1770.689 1947.319 C 1768.155 1950.141 1764.541 1951.753 1760.748 1951.754 Z " fill="rgb(255,217,0)"/><path d=" M 1808.97 1877.715 C 1811.214 1872.52 1813.114 1865.602 1808.809 1861.929 C 1806.311 1859.799 1802.715 1859.795 1799.443 1859.53 C 1790.226 1858.783 1780.738 1854.542 1776.232 1846.466 C 1771.727 1838.39 1774.243 1826.382 1782.743 1822.738 C 1788.472 1820.282 1795.04 1821.955 1801.037 1823.656 L 1819.043 1828.762 C 1824.393 1830.279 1830.01 1831.952 1833.862 1835.963 C 1840.004 1842.361 1839.545 1853.175 1834.666 1860.581 C 1829.787 1867.988 1822.44 1875.712 1814.029 1878.524 L 1808.97 1877.715 Z " fill="rgb(20,20,20)"/><path d=" M 2057.383 2212.696 L 1319.089 2212.696 C 1318.663 2212.697 1318.268 2212.471 1318.055 2212.102 C 1317.841 2211.733 1317.841 2211.278 1318.055 2210.909 C 1318.268 2210.54 1318.663 2210.314 1319.089 2210.315 L 2057.383 2210.315 C 2057.809 2210.314 2058.203 2210.54 2058.417 2210.909 C 2058.63 2211.278 2058.63 2211.733 2058.417 2212.102 C 2058.203 2212.471 2057.809 2212.697 2057.383 2212.696 Z " fill="rgb(63,61,86)"/></g></svg>