<?xml version="1.0" encoding="UTF-8" standalone="no"?>
<!-- Generator: Gravit.io -->
<svg xmlns="http://www.w3.org/2000/svg" xmlns:xlink="http://www.w3.org/1999/xlink" style="isolation:isolate" viewBox="1050 1336.364 1016.048 587.856" width="1016.048pt" height="587.856pt"><g><path d=" M 1569.446 1888.384 L 1568.179 1887.909 C 1567.9 1887.804 1540.186 1877.186 1527.204 1853.11 C 1514.221 1829.032 1520.578 1800.043 1520.644 1799.754 L 1520.943 1798.434 L 1522.209 1798.909 C 1522.488 1799.013 1550.201 1809.632 1563.184 1833.708 C 1576.167 1857.785 1569.81 1886.775 1569.744 1887.064 L 1569.446 1888.384 Z  M 1529.283 1851.989 C 1540.259 1872.346 1562.159 1882.781 1567.708 1885.163 C 1568.763 1879.216 1572.072 1855.166 1561.105 1834.829 C 1550.14 1814.494 1528.231 1804.043 1522.68 1801.655 C 1521.624 1807.606 1518.317 1831.653 1529.283 1851.989 L 1529.283 1851.989 Z " fill="rgb(208,205,225)"/><path d=" M 1537.125 1844.664 C 1560.456 1858.701 1569.442 1886.582 1569.442 1886.582 C 1569.442 1886.582 1540.6 1891.705 1517.269 1877.668 C 1493.938 1863.631 1484.952 1835.75 1484.952 1835.75 C 1484.952 1835.75 1513.794 1830.627 1537.125 1844.664 Z " fill="rgb(208,205,225)"/><path d=" M 1981.256 1887.064 C 1981.19 1886.775 1974.833 1857.785 1987.816 1833.708 C 2000.799 1809.632 2028.512 1799.013 2028.791 1798.909 L 2030.057 1798.434 L 2030.357 1799.754 C 2030.422 1800.043 2036.779 1829.032 2023.796 1853.11 C 2010.814 1877.186 1983.1 1887.804 1982.821 1887.909 L 1981.554 1888.384 L 1981.256 1887.064 Z  M 2028.32 1801.655 C 2022.769 1804.043 2000.86 1814.494 1989.895 1834.829 C 1978.928 1855.166 1982.237 1879.215 1983.292 1885.163 C 1988.841 1882.781 2010.741 1872.346 2021.717 1851.989 C 2032.683 1831.653 2029.376 1807.606 2028.32 1801.655 L 2028.32 1801.655 Z " fill="rgb(208,205,225)"/><path d=" M 2013.875 1844.664 C 1990.544 1858.701 1981.558 1886.582 1981.558 1886.582 C 1981.558 1886.582 2010.4 1891.705 2033.731 1877.668 C 2057.062 1863.631 2066.048 1835.75 2066.048 1835.75 C 2066.048 1835.75 2037.206 1830.627 2013.875 1844.664 Z " fill="rgb(255,217,0)"/><rect x="1474.493" y="1885.878" width="556.108" height="2.361" transform="matrix(1,0,0,1,0,0)" fill="rgb(208,205,225)"/><rect x="1050" y="1336.364" width="598" height="321" transform="matrix(1,0,0,1,0,0)" fill="rgb(13,103,141)"/><rect x="1080" y="1622.364" width="545" height="13" transform="matrix(1,0,0,1,0,0)" fill="rgb(208,205,225)"/><rect x="1080" y="1622.364" width="314" height="13" transform="matrix(1,0,0,1,0,0)" fill="rgb(255,217,0)"/><path d=" M 1080 1612.809 L 1079.974 1594.801 L 1100.36 1603.776 L 1080 1612.809 L 1080 1612.809 Z " fill="rgb(255,217,0)"/><rect x="1112" y="1594.364" width="7" height="18" transform="matrix(1,0,0,1,0,0)" fill="rgb(255,217,0)"/><rect x="1126" y="1594.364" width="7" height="18" transform="matrix(1,0,0,1,0,0)" fill="rgb(255,217,0)"/><path d=" M 1615 1586.364 L 1083 1586.364 L 1083 1365.364 L 1615 1365.364 L 1615 1586.364 Z  M 1085 1584.364 L 1613 1584.364 L 1613 1367.364 L 1085 1367.364 L 1085 1584.364 Z " fill="rgb(208,205,225)"/><circle vector-effect="non-scaling-stroke" cx="1350" cy="1477.3636363636365" r="47" fill="rgb(255,217,0)"/><rect x="1407.024" y="1442.531" width="60" height="2" transform="matrix(1,0,0,1,0,0)" fill="rgb(208,205,225)"/><rect x="1228.024" y="1521.531" width="60" height="2" transform="matrix(1,0,0,1,0,0)" fill="rgb(208,205,225)"/><path d=" M 1489.024 1452.531 C 1484.053 1452.531 1480.024 1448.502 1480.024 1443.531 C 1480.024 1438.561 1484.053 1434.531 1489.024 1434.531 C 1493.994 1434.531 1498.024 1438.561 1498.024 1443.531 C 1498.024 1448.502 1493.994 1452.531 1489.024 1452.531 Z  M 1489.024 1436.531 C 1485.158 1436.531 1482.024 1439.665 1482.024 1443.531 C 1482.024 1447.397 1485.158 1450.531 1489.024 1450.531 C 1492.89 1450.531 1496.024 1447.397 1496.024 1443.531 C 1496.024 1439.665 1492.89 1436.531 1489.024 1436.531 Z " fill="rgb(208,205,225)"/><path d=" M 1489.024 1541.531 C 1484.053 1541.531 1480.024 1537.502 1480.024 1532.531 C 1480.024 1527.561 1484.053 1523.531 1489.024 1523.531 C 1493.994 1523.531 1498.024 1527.561 1498.024 1532.531 C 1498.024 1537.502 1493.994 1541.531 1489.024 1541.531 Z  M 1489.024 1525.531 C 1485.158 1525.531 1482.024 1528.665 1482.024 1532.531 C 1482.024 1536.397 1485.158 1539.531 1489.024 1539.531 C 1492.89 1539.531 1496.024 1536.397 1496.024 1532.531 C 1496.024 1528.665 1492.89 1525.531 1489.024 1525.531 Z " fill="rgb(208,205,225)"/><path d=" M 1521.024 1541.531 C 1516.053 1541.531 1512.024 1537.502 1512.024 1532.531 C 1512.024 1527.561 1516.053 1523.531 1521.024 1523.531 C 1525.994 1523.531 1530.024 1527.561 1530.024 1532.531 C 1530.024 1537.502 1525.994 1541.531 1521.024 1541.531 Z  M 1521.024 1525.531 C 1517.158 1525.531 1514.024 1528.665 1514.024 1532.531 C 1514.024 1536.397 1517.158 1539.531 1521.024 1539.531 C 1524.89 1539.531 1528.024 1536.397 1528.024 1532.531 C 1528.024 1528.665 1524.89 1525.531 1521.024 1525.531 Z " fill="rgb(208,205,225)"/><path d=" M 1457.024 1541.531 C 1452.053 1541.531 1448.024 1537.502 1448.024 1532.531 C 1448.024 1527.561 1452.053 1523.531 1457.024 1523.531 C 1461.994 1523.531 1466.024 1527.561 1466.024 1532.531 C 1466.024 1537.502 1461.994 1541.531 1457.024 1541.531 Z  M 1457.024 1525.531 C 1453.158 1525.531 1450.024 1528.665 1450.024 1532.531 C 1450.024 1536.397 1453.158 1539.531 1457.024 1539.531 C 1460.89 1539.531 1464.024 1536.397 1464.024 1532.531 C 1464.024 1528.665 1460.89 1525.531 1457.024 1525.531 Z " fill="rgb(208,205,225)"/><path d=" M 1203.024 1531.531 C 1198.053 1531.531 1194.024 1527.502 1194.024 1522.531 C 1194.024 1517.561 1198.053 1513.531 1203.024 1513.531 C 1207.994 1513.531 1212.024 1517.561 1212.024 1522.531 C 1212.024 1527.502 1207.994 1531.531 1203.024 1531.531 Z  M 1203.024 1515.531 C 1199.158 1515.531 1196.024 1518.665 1196.024 1522.531 C 1196.024 1526.397 1199.158 1529.531 1203.024 1529.531 C 1206.89 1529.531 1210.024 1526.397 1210.024 1522.531 L 1210.024 1522.531 C 1210.019 1518.667 1206.888 1515.536 1203.024 1515.531 L 1203.024 1515.531 Z " fill="rgb(208,205,225)"/><path d=" M 1171.024 1531.531 C 1166.053 1531.531 1162.024 1527.502 1162.024 1522.531 C 1162.024 1517.561 1166.053 1513.531 1171.024 1513.531 C 1175.994 1513.531 1180.024 1517.561 1180.024 1522.531 C 1180.024 1527.502 1175.994 1531.531 1171.024 1531.531 Z  M 1171.024 1515.531 C 1167.158 1515.531 1164.024 1518.665 1164.024 1522.531 C 1164.024 1526.397 1167.158 1529.531 1171.024 1529.531 C 1174.89 1529.531 1178.024 1526.397 1178.024 1522.531 L 1178.024 1522.531 C 1178.019 1518.667 1174.888 1515.536 1171.024 1515.531 L 1171.024 1515.531 Z " fill="rgb(208,205,225)"/><rect x="1488.024" y="1460.531" width="2" height="50" transform="matrix(1,0,0,1,0,0)" fill="rgb(208,205,225)"/><path d=" M 1812.037 1471.622 C 1812.037 1471.622 1795.493 1469.259 1787.221 1499.984 C 1787.221 1499.984 1776.585 1533.072 1776.585 1533.072 C 1776.585 1533.072 1825.035 1540.162 1826.217 1537.798 C 1827.399 1535.435 1836.853 1478.713 1812.037 1471.622 Z " fill="rgb(47,46,65)"/><circle vector-effect="non-scaling-stroke" cx="1802.58279" cy="1427.8989463636365" r="31.9063000000001" fill="rgb(255,184,184)"/><path d=" M 1788.402 1453.897 C 1788.402 1453.897 1799.038 1481.076 1795.492 1484.621 C 1795.492 1484.621 1839.216 1492.893 1839.216 1492.893 C 1839.216 1492.893 1842.761 1475.168 1828.58 1464.532 C 1828.58 1464.532 1822.672 1446.806 1823.854 1443.261 C 1825.035 1439.716 1788.402 1453.897 1788.402 1453.897 Z " fill="rgb(255,184,184)"/><path d=" M 1816.763 1465.714 C 1804.65 1470.288 1793.738 1477.562 1784.857 1486.985 C 1770.676 1502.347 1763.586 1507.074 1763.586 1507.074 C 1763.586 1507.074 1747.042 1512.982 1752.951 1541.344 C 1755.905 1555.524 1753.837 1571.477 1751.03 1583.885 C 1746.743 1603.141 1744.613 1622.814 1744.679 1642.541 L 1744.679 1654.788 C 1744.679 1654.788 1635.961 1882.859 1672.594 1898.222 C 1672.594 1898.222 1742.315 1918.311 1744.679 1914.766 C 1744.679 1914.766 1789.584 1726.873 1789.584 1726.873 C 1789.584 1726.873 1801.401 1924.219 1830.944 1924.219 C 1830.944 1924.219 1908.937 1915.947 1908.937 1915.947 L 1848.67 1679.604 C 1848.67 1679.604 1862.85 1639.426 1827.399 1611.065 L 1822.672 1598.066 C 1842.276 1598.076 1851.238 1473.996 1830.944 1463.35 C 1830.944 1463.35 1826.217 1459.805 1816.763 1465.714 Z " fill="rgb(20,20,20)"/><path d=" M 1787.22 1529.526 L 1770.676 1573.25 L 1731.68 1654.788 C 1731.68 1654.788 1713.954 1707.965 1728.135 1707.965 C 1742.315 1707.965 1752.951 1657.152 1752.951 1657.152 L 1796.674 1588.612 L 1821.49 1527.163 L 1787.22 1529.526 Z " fill="rgb(255,184,184)"/><ellipse vector-effect="non-scaling-stroke" cx="1708.63644" cy="1912.4020563636363" rx="20.67999000000009" ry="11.817140000000109" fill="rgb(47,46,65)"/><ellipse vector-effect="non-scaling-stroke" cx="1866.98624" cy="1912.4020563636363" rx="20.67999000000009" ry="11.817140000000109" fill="rgb(47,46,65)"/><path d=" M 1814.9 1383.156 L 1814.9 1383.156 C 1813.257 1383.159 1811.618 1383.322 1810.007 1383.643 C 1807.096 1382.23 1803.903 1381.494 1800.667 1381.49 L 1799.819 1381.49 C 1783.475 1381.49 1770.225 1396.28 1770.225 1414.525 L 1770.225 1414.525 L 1775.701 1414.525 L 1776.586 1407.792 L 1777.883 1414.525 L 1782.445 1414.525 C 1781.026 1419.927 1780.314 1425.49 1780.326 1431.075 L 1780.326 1464.699 L 1788.606 1464.699 L 1793.4 1452.241 L 1792.202 1464.699 L 1845.425 1464.699 L 1849.783 1453.374 L 1848.693 1464.699 L 1854.686 1464.699 L 1854.686 1438.298 C 1854.686 1407.844 1836.873 1383.156 1814.9 1383.156 Z " fill="rgb(20,20,20)"/><path d=" M 1803.166 1375.784 L 1810.977 1375.784 C 1814.342 1375.784 1817.071 1378.512 1817.071 1381.878 L 1817.071 1417.689 C 1817.071 1421.055 1814.342 1423.784 1810.977 1423.784 L 1803.166 1423.784 C 1799.8 1423.784 1797.071 1421.055 1797.071 1417.689 L 1797.071 1381.878 C 1797.071 1378.512 1799.8 1375.784 1803.166 1375.784 L 1803.166 1375.784 Z " fill="rgb(208,205,225)"/><circle vector-effect="non-scaling-stroke" cx="1807.0710800000002" cy="1432.7837663636365" r="18" fill="rgb(255,217,0)"/><circle vector-effect="non-scaling-stroke" cx="1807.0710800000002" cy="1432.7837663636365" r="9" fill="rgb(208,205,225)"/><circle vector-effect="non-scaling-stroke" cx="1807.0710800000002" cy="1432.7837663636365" r="4" fill="rgb(255,217,0)"/></g></svg>